M48
; DRILL file {KiCad (5.1.6-0-10_14)} date Wednesday, October 21, 2020 at 04:17:13 PM
; FORMAT={-:-/ absolute / inch / decimal}
; #@! TF.CreationDate,2020-10-21T16:17:13-07:00
; #@! TF.GenerationSoftware,Kicad,Pcbnew,(5.1.6-0-10_14)
; #@! TF.FileFunction,Plated,1,2,PTH
FMAT,2
INCH
T1C0.0079
T2C0.0157
T3C0.0394
T4C0.1213
T5C0.2402
%
G90
G05
T1
X6.6244Y-3.5433
X6.6244Y-3.5827
X6.6244Y-3.622
X6.6756Y-3.5433
X6.6756Y-3.5827
X6.6756Y-3.622
T2
X5.77Y-3.12
X5.77Y-3.345
X5.77Y-3.825
X5.77Y-4.05
X6.405Y-3.585
X6.645Y-3.735
X6.645Y-3.815
X6.645Y-4.0
X6.7Y-3.45
X6.8Y-3.625
X6.85Y-3.415
X6.885Y-4.035
X6.925Y-3.415
X7.05Y-4.045
X7.06Y-3.41
X7.445Y-3.49
X7.45Y-3.71
T3
X7.335Y-3.6
X6.063Y-3.8583
X5.875Y-4.05
X7.05Y-3.6
X6.063Y-3.3071
X5.875Y-3.1
T4
X5.74Y-2.8
X7.4Y-4.27
X7.41Y-2.77
X5.75Y-4.29
T5
X6.29Y-4.17
X6.3Y-2.98
X6.97Y-2.97
T0
M30
