%TF.GenerationSoftware,KiCad,Pcbnew,(5.1.6-0-10_14)*%
%TF.CreationDate,2020-09-16T18:16:11-07:00*%
%TF.ProjectId,tia_dev_board,7469615f-6465-4765-9f62-6f6172642e6b,rev?*%
%TF.SameCoordinates,Original*%
%TF.FileFunction,Copper,L1,Top*%
%TF.FilePolarity,Positive*%
%FSLAX46Y46*%
G04 Gerber Fmt 4.6, Leading zero omitted, Abs format (unit mm)*
G04 Created by KiCad (PCBNEW (5.1.6-0-10_14)) date 2020-09-16 18:16:11*
%MOMM*%
%LPD*%
G01*
G04 APERTURE LIST*
%TA.AperFunction,ViaPad*%
%ADD10C,0.500000*%
%TD*%
%TA.AperFunction,SMDPad,CuDef*%
%ADD11R,2.290000X3.000000*%
%TD*%
%TA.AperFunction,ComponentPad*%
%ADD12C,10.160000*%
%TD*%
%TA.AperFunction,ComponentPad*%
%ADD13C,2.000000*%
%TD*%
%TA.AperFunction,Conductor*%
%ADD14R,0.950000X0.460000*%
%TD*%
%TA.AperFunction,SMDPad,CuDef*%
%ADD15R,5.080000X1.600000*%
%TD*%
%TA.AperFunction,ComponentPad*%
%ADD16C,4.000000*%
%TD*%
%TA.AperFunction,SMDPad,CuDef*%
%ADD17R,1.800000X0.800000*%
%TD*%
%TA.AperFunction,ViaPad*%
%ADD18C,0.800000*%
%TD*%
%TA.AperFunction,Conductor*%
%ADD19C,0.250000*%
%TD*%
%TA.AperFunction,Conductor*%
%ADD20C,1.000000*%
%TD*%
G04 APERTURE END LIST*
D10*
%TO.N,N/C*%
%TO.C,U4*%
X169560000Y-92000000D03*
X168260000Y-92000000D03*
X169560000Y-91000000D03*
X168260000Y-91000000D03*
X169560000Y-90000000D03*
X168260000Y-90000000D03*
D11*
%TD*%
%TO.P,U4,9*%
%TO.N,N/C*%
X168910000Y-91000000D03*
%TO.P,U4,8*%
%TO.N,Net-(U4-Pad8)*%
%TA.AperFunction,SMDPad,CuDef*%
G36*
G01*
X170410000Y-89245000D02*
X170410000Y-88945000D01*
G75*
G02*
X170560000Y-88795000I150000J0D01*
G01*
X172210000Y-88795000D01*
G75*
G02*
X172360000Y-88945000I0J-150000D01*
G01*
X172360000Y-89245000D01*
G75*
G02*
X172210000Y-89395000I-150000J0D01*
G01*
X170560000Y-89395000D01*
G75*
G02*
X170410000Y-89245000I0J150000D01*
G01*
G37*
%TD.AperFunction*%
%TO.P,U4,7*%
%TO.N,/V+*%
%TA.AperFunction,SMDPad,CuDef*%
G36*
G01*
X170410000Y-90515000D02*
X170410000Y-90215000D01*
G75*
G02*
X170560000Y-90065000I150000J0D01*
G01*
X172210000Y-90065000D01*
G75*
G02*
X172360000Y-90215000I0J-150000D01*
G01*
X172360000Y-90515000D01*
G75*
G02*
X172210000Y-90665000I-150000J0D01*
G01*
X170560000Y-90665000D01*
G75*
G02*
X170410000Y-90515000I0J150000D01*
G01*
G37*
%TD.AperFunction*%
%TO.P,U4,6*%
%TO.N,/VOUTi*%
%TA.AperFunction,SMDPad,CuDef*%
G36*
G01*
X170410000Y-91785000D02*
X170410000Y-91485000D01*
G75*
G02*
X170560000Y-91335000I150000J0D01*
G01*
X172210000Y-91335000D01*
G75*
G02*
X172360000Y-91485000I0J-150000D01*
G01*
X172360000Y-91785000D01*
G75*
G02*
X172210000Y-91935000I-150000J0D01*
G01*
X170560000Y-91935000D01*
G75*
G02*
X170410000Y-91785000I0J150000D01*
G01*
G37*
%TD.AperFunction*%
%TO.P,U4,5*%
%TO.N,Net-(U4-Pad5)*%
%TA.AperFunction,SMDPad,CuDef*%
G36*
G01*
X170410000Y-93055000D02*
X170410000Y-92755000D01*
G75*
G02*
X170560000Y-92605000I150000J0D01*
G01*
X172210000Y-92605000D01*
G75*
G02*
X172360000Y-92755000I0J-150000D01*
G01*
X172360000Y-93055000D01*
G75*
G02*
X172210000Y-93205000I-150000J0D01*
G01*
X170560000Y-93205000D01*
G75*
G02*
X170410000Y-93055000I0J150000D01*
G01*
G37*
%TD.AperFunction*%
%TO.P,U4,4*%
%TO.N,/V-*%
%TA.AperFunction,SMDPad,CuDef*%
G36*
G01*
X165460000Y-93055000D02*
X165460000Y-92755000D01*
G75*
G02*
X165610000Y-92605000I150000J0D01*
G01*
X167260000Y-92605000D01*
G75*
G02*
X167410000Y-92755000I0J-150000D01*
G01*
X167410000Y-93055000D01*
G75*
G02*
X167260000Y-93205000I-150000J0D01*
G01*
X165610000Y-93205000D01*
G75*
G02*
X165460000Y-93055000I0J150000D01*
G01*
G37*
%TD.AperFunction*%
%TO.P,U4,3*%
%TO.N,/VINPi*%
%TA.AperFunction,SMDPad,CuDef*%
G36*
G01*
X165460000Y-91785000D02*
X165460000Y-91485000D01*
G75*
G02*
X165610000Y-91335000I150000J0D01*
G01*
X167260000Y-91335000D01*
G75*
G02*
X167410000Y-91485000I0J-150000D01*
G01*
X167410000Y-91785000D01*
G75*
G02*
X167260000Y-91935000I-150000J0D01*
G01*
X165610000Y-91935000D01*
G75*
G02*
X165460000Y-91785000I0J150000D01*
G01*
G37*
%TD.AperFunction*%
%TO.P,U4,2*%
%TO.N,/VINNi*%
%TA.AperFunction,SMDPad,CuDef*%
G36*
G01*
X165460000Y-90515000D02*
X165460000Y-90215000D01*
G75*
G02*
X165610000Y-90065000I150000J0D01*
G01*
X167260000Y-90065000D01*
G75*
G02*
X167410000Y-90215000I0J-150000D01*
G01*
X167410000Y-90515000D01*
G75*
G02*
X167260000Y-90665000I-150000J0D01*
G01*
X165610000Y-90665000D01*
G75*
G02*
X165460000Y-90515000I0J150000D01*
G01*
G37*
%TD.AperFunction*%
%TO.P,U4,1*%
%TO.N,Net-(U4-Pad1)*%
%TA.AperFunction,SMDPad,CuDef*%
G36*
G01*
X165460000Y-89245000D02*
X165460000Y-88945000D01*
G75*
G02*
X165610000Y-88795000I150000J0D01*
G01*
X167260000Y-88795000D01*
G75*
G02*
X167410000Y-88945000I0J-150000D01*
G01*
X167410000Y-89245000D01*
G75*
G02*
X167260000Y-89395000I-150000J0D01*
G01*
X165610000Y-89395000D01*
G75*
G02*
X165460000Y-89245000I0J150000D01*
G01*
G37*
%TD.AperFunction*%
%TD*%
D12*
%TO.P,U3,1*%
%TO.N,/V-*%
X162560000Y-108585000D03*
%TD*%
%TO.P,U2,1*%
%TO.N,GND*%
X160020000Y-67310000D03*
%TD*%
%TO.P,U1,1*%
%TO.N,/V+*%
X176530000Y-67310000D03*
%TD*%
D13*
%TO.P,TP6,1*%
%TO.N,/VOUT*%
X186309000Y-91440000D03*
%TD*%
%TO.P,TP5,1*%
%TO.N,/VOUTi*%
X179070000Y-91440000D03*
%TD*%
%TO.P,TP4,1*%
%TO.N,/VINNi*%
X154000000Y-84000000D03*
%TD*%
%TO.P,TP3,1*%
%TO.N,/VINPi*%
X154000000Y-98000000D03*
%TD*%
%TO.P,TP2,1*%
%TO.N,/VINN*%
X149225000Y-78740000D03*
%TD*%
%TO.P,TP1,1*%
%TO.N,/VINP*%
X149225000Y-102870000D03*
%TD*%
%TO.P,R5,2*%
%TO.N,/VOUTi*%
%TA.AperFunction,SMDPad,CuDef*%
G36*
G01*
X182185000Y-90989999D02*
X182185000Y-91890001D01*
G75*
G02*
X181935001Y-92140000I-249999J0D01*
G01*
X181284999Y-92140000D01*
G75*
G02*
X181035000Y-91890001I0J249999D01*
G01*
X181035000Y-90989999D01*
G75*
G02*
X181284999Y-90740000I249999J0D01*
G01*
X181935001Y-90740000D01*
G75*
G02*
X182185000Y-90989999I0J-249999D01*
G01*
G37*
%TD.AperFunction*%
%TO.P,R5,1*%
%TO.N,/VOUT*%
%TA.AperFunction,SMDPad,CuDef*%
G36*
G01*
X184235000Y-90989999D02*
X184235000Y-91890001D01*
G75*
G02*
X183985001Y-92140000I-249999J0D01*
G01*
X183334999Y-92140000D01*
G75*
G02*
X183085000Y-91890001I0J249999D01*
G01*
X183085000Y-90989999D01*
G75*
G02*
X183334999Y-90740000I249999J0D01*
G01*
X183985001Y-90740000D01*
G75*
G02*
X184235000Y-90989999I0J-249999D01*
G01*
G37*
%TD.AperFunction*%
%TD*%
%TO.P,R4,2*%
%TO.N,Net-(C6-Pad1)*%
%TA.AperFunction,SMDPad,CuDef*%
G36*
G01*
X178619999Y-96961000D02*
X179520001Y-96961000D01*
G75*
G02*
X179770000Y-97210999I0J-249999D01*
G01*
X179770000Y-97861001D01*
G75*
G02*
X179520001Y-98111000I-249999J0D01*
G01*
X178619999Y-98111000D01*
G75*
G02*
X178370000Y-97861001I0J249999D01*
G01*
X178370000Y-97210999D01*
G75*
G02*
X178619999Y-96961000I249999J0D01*
G01*
G37*
%TD.AperFunction*%
%TO.P,R4,1*%
%TO.N,/VOUTi*%
%TA.AperFunction,SMDPad,CuDef*%
G36*
G01*
X178619999Y-94911000D02*
X179520001Y-94911000D01*
G75*
G02*
X179770000Y-95160999I0J-249999D01*
G01*
X179770000Y-95811001D01*
G75*
G02*
X179520001Y-96061000I-249999J0D01*
G01*
X178619999Y-96061000D01*
G75*
G02*
X178370000Y-95811001I0J249999D01*
G01*
X178370000Y-95160999D01*
G75*
G02*
X178619999Y-94911000I249999J0D01*
G01*
G37*
%TD.AperFunction*%
%TD*%
%TO.P,RF1,2*%
%TO.N,/VINNi*%
%TA.AperFunction,SMDPad,CuDef*%
G36*
G01*
X168070000Y-85909999D02*
X168070000Y-86810001D01*
G75*
G02*
X167820001Y-87060000I-249999J0D01*
G01*
X167169999Y-87060000D01*
G75*
G02*
X166920000Y-86810001I0J249999D01*
G01*
X166920000Y-85909999D01*
G75*
G02*
X167169999Y-85660000I249999J0D01*
G01*
X167820001Y-85660000D01*
G75*
G02*
X168070000Y-85909999I0J-249999D01*
G01*
G37*
%TD.AperFunction*%
%TO.P,RF1,1*%
%TO.N,/VOUTi*%
%TA.AperFunction,SMDPad,CuDef*%
G36*
G01*
X170120000Y-85909999D02*
X170120000Y-86810001D01*
G75*
G02*
X169870001Y-87060000I-249999J0D01*
G01*
X169219999Y-87060000D01*
G75*
G02*
X168970000Y-86810001I0J249999D01*
G01*
X168970000Y-85909999D01*
G75*
G02*
X169219999Y-85660000I249999J0D01*
G01*
X169870001Y-85660000D01*
G75*
G02*
X170120000Y-85909999I0J-249999D01*
G01*
G37*
%TD.AperFunction*%
%TD*%
%TO.P,R2,2*%
%TO.N,/VINP*%
%TA.AperFunction,SMDPad,CuDef*%
G36*
G01*
X148893000Y-99498999D02*
X148893000Y-100399001D01*
G75*
G02*
X148643001Y-100649000I-249999J0D01*
G01*
X147992999Y-100649000D01*
G75*
G02*
X147743000Y-100399001I0J249999D01*
G01*
X147743000Y-99498999D01*
G75*
G02*
X147992999Y-99249000I249999J0D01*
G01*
X148643001Y-99249000D01*
G75*
G02*
X148893000Y-99498999I0J-249999D01*
G01*
G37*
%TD.AperFunction*%
%TO.P,R2,1*%
%TO.N,/VINPi*%
%TA.AperFunction,SMDPad,CuDef*%
G36*
G01*
X150943000Y-99498999D02*
X150943000Y-100399001D01*
G75*
G02*
X150693001Y-100649000I-249999J0D01*
G01*
X150042999Y-100649000D01*
G75*
G02*
X149793000Y-100399001I0J249999D01*
G01*
X149793000Y-99498999D01*
G75*
G02*
X150042999Y-99249000I249999J0D01*
G01*
X150693001Y-99249000D01*
G75*
G02*
X150943000Y-99498999I0J-249999D01*
G01*
G37*
%TD.AperFunction*%
%TD*%
%TO.P,R1,2*%
%TO.N,/VINN*%
%TA.AperFunction,SMDPad,CuDef*%
G36*
G01*
X149020000Y-81464999D02*
X149020000Y-82365001D01*
G75*
G02*
X148770001Y-82615000I-249999J0D01*
G01*
X148119999Y-82615000D01*
G75*
G02*
X147870000Y-82365001I0J249999D01*
G01*
X147870000Y-81464999D01*
G75*
G02*
X148119999Y-81215000I249999J0D01*
G01*
X148770001Y-81215000D01*
G75*
G02*
X149020000Y-81464999I0J-249999D01*
G01*
G37*
%TD.AperFunction*%
%TO.P,R1,1*%
%TO.N,/VINNi*%
%TA.AperFunction,SMDPad,CuDef*%
G36*
G01*
X151070000Y-81464999D02*
X151070000Y-82365001D01*
G75*
G02*
X150820001Y-82615000I-249999J0D01*
G01*
X150169999Y-82615000D01*
G75*
G02*
X149920000Y-82365001I0J249999D01*
G01*
X149920000Y-81464999D01*
G75*
G02*
X150169999Y-81215000I249999J0D01*
G01*
X150820001Y-81215000D01*
G75*
G02*
X151070000Y-81464999I0J-249999D01*
G01*
G37*
%TD.AperFunction*%
%TD*%
D14*
%TO.N,GND*%
%TO.C,J3*%
X189796000Y-88584000D03*
X189796000Y-94296000D03*
D15*
%TD*%
%TO.P,J3,2*%
%TO.N,GND*%
X192786000Y-88670000D03*
%TO.P,J3,2*%
%TO.N,GND*%
X192786000Y-94210000D03*
%TO.P,J3,1*%
%TO.N,/VOUT*%
X192786000Y-91440000D03*
%TD*%
D14*
%TO.N,GND*%
%TO.C,J2*%
X146050000Y-84856000D03*
X146050000Y-79144000D03*
D15*
%TD*%
%TO.P,J2,2*%
%TO.N,GND*%
X143060000Y-84770000D03*
%TO.P,J2,2*%
%TO.N,GND*%
X143060000Y-79230000D03*
%TO.P,J2,1*%
%TO.N,/VINN*%
X143060000Y-82000000D03*
%TD*%
D14*
%TO.N,GND*%
%TO.C,J1*%
X146050000Y-102856000D03*
X146050000Y-97144000D03*
D15*
%TD*%
%TO.P,J1,2*%
%TO.N,GND*%
X143060000Y-102770000D03*
%TO.P,J1,2*%
%TO.N,GND*%
X143060000Y-97230000D03*
%TO.P,J1,1*%
%TO.N,/VINP*%
X143060000Y-100000000D03*
%TD*%
D16*
%TO.P,H4,1*%
%TO.N,N/C*%
X188000000Y-115000000D03*
%TD*%
%TO.P,H3,1*%
%TO.N,N/C*%
X146000000Y-68000000D03*
%TD*%
%TO.P,H2,1*%
%TO.N,N/C*%
X188000000Y-68000000D03*
%TD*%
%TO.P,H1,1*%
%TO.N,N/C*%
X146000000Y-115000000D03*
%TD*%
D17*
%TO.P,D3,3*%
%TO.N,GND*%
X180723000Y-86680000D03*
%TO.P,D3,2*%
%TO.N,/V+*%
X184023000Y-85730000D03*
%TO.P,D3,1*%
%TO.N,/VOUT*%
X184023000Y-87630000D03*
%TD*%
%TO.P,D2,3*%
%TO.N,GND*%
X173480000Y-102550000D03*
%TO.P,D2,2*%
%TO.N,/V-*%
X170180000Y-103500000D03*
%TO.P,D2,1*%
%TO.N,GND*%
X170180000Y-101600000D03*
%TD*%
%TO.P,D1,3*%
%TO.N,GND*%
X161290000Y-91000000D03*
%TO.P,D1,2*%
%TO.N,/VINPi*%
X157990000Y-91950000D03*
%TO.P,D1,1*%
%TO.N,/VINNi*%
X157990000Y-90050000D03*
%TD*%
%TO.P,C6,2*%
%TO.N,GND*%
%TA.AperFunction,SMDPad,CuDef*%
G36*
G01*
X178619999Y-101043000D02*
X179520001Y-101043000D01*
G75*
G02*
X179770000Y-101292999I0J-249999D01*
G01*
X179770000Y-101943001D01*
G75*
G02*
X179520001Y-102193000I-249999J0D01*
G01*
X178619999Y-102193000D01*
G75*
G02*
X178370000Y-101943001I0J249999D01*
G01*
X178370000Y-101292999D01*
G75*
G02*
X178619999Y-101043000I249999J0D01*
G01*
G37*
%TD.AperFunction*%
%TO.P,C6,1*%
%TO.N,Net-(C6-Pad1)*%
%TA.AperFunction,SMDPad,CuDef*%
G36*
G01*
X178619999Y-98993000D02*
X179520001Y-98993000D01*
G75*
G02*
X179770000Y-99242999I0J-249999D01*
G01*
X179770000Y-99893001D01*
G75*
G02*
X179520001Y-100143000I-249999J0D01*
G01*
X178619999Y-100143000D01*
G75*
G02*
X178370000Y-99893001I0J249999D01*
G01*
X178370000Y-99242999D01*
G75*
G02*
X178619999Y-98993000I249999J0D01*
G01*
G37*
%TD.AperFunction*%
%TD*%
%TO.P,CF1,2*%
%TO.N,/VINNi*%
%TA.AperFunction,SMDPad,CuDef*%
G36*
G01*
X168070000Y-83750999D02*
X168070000Y-84651001D01*
G75*
G02*
X167820001Y-84901000I-249999J0D01*
G01*
X167169999Y-84901000D01*
G75*
G02*
X166920000Y-84651001I0J249999D01*
G01*
X166920000Y-83750999D01*
G75*
G02*
X167169999Y-83501000I249999J0D01*
G01*
X167820001Y-83501000D01*
G75*
G02*
X168070000Y-83750999I0J-249999D01*
G01*
G37*
%TD.AperFunction*%
%TO.P,CF1,1*%
%TO.N,/VOUTi*%
%TA.AperFunction,SMDPad,CuDef*%
G36*
G01*
X170120000Y-83750999D02*
X170120000Y-84651001D01*
G75*
G02*
X169870001Y-84901000I-249999J0D01*
G01*
X169219999Y-84901000D01*
G75*
G02*
X168970000Y-84651001I0J249999D01*
G01*
X168970000Y-83750999D01*
G75*
G02*
X169219999Y-83501000I249999J0D01*
G01*
X169870001Y-83501000D01*
G75*
G02*
X170120000Y-83750999I0J-249999D01*
G01*
G37*
%TD.AperFunction*%
%TD*%
%TO.P,C4,2*%
%TO.N,/V+*%
%TA.AperFunction,SMDPad,CuDef*%
G36*
G01*
X175444999Y-89595000D02*
X176345001Y-89595000D01*
G75*
G02*
X176595000Y-89844999I0J-249999D01*
G01*
X176595000Y-90495001D01*
G75*
G02*
X176345001Y-90745000I-249999J0D01*
G01*
X175444999Y-90745000D01*
G75*
G02*
X175195000Y-90495001I0J249999D01*
G01*
X175195000Y-89844999D01*
G75*
G02*
X175444999Y-89595000I249999J0D01*
G01*
G37*
%TD.AperFunction*%
%TO.P,C4,1*%
%TO.N,GND*%
%TA.AperFunction,SMDPad,CuDef*%
G36*
G01*
X175444999Y-87545000D02*
X176345001Y-87545000D01*
G75*
G02*
X176595000Y-87794999I0J-249999D01*
G01*
X176595000Y-88445001D01*
G75*
G02*
X176345001Y-88695000I-249999J0D01*
G01*
X175444999Y-88695000D01*
G75*
G02*
X175195000Y-88445001I0J249999D01*
G01*
X175195000Y-87794999D01*
G75*
G02*
X175444999Y-87545000I249999J0D01*
G01*
G37*
%TD.AperFunction*%
%TD*%
%TO.P,C3,2*%
%TO.N,/V+*%
%TA.AperFunction,SMDPad,CuDef*%
G36*
G01*
X173539999Y-89595000D02*
X174440001Y-89595000D01*
G75*
G02*
X174690000Y-89844999I0J-249999D01*
G01*
X174690000Y-90495001D01*
G75*
G02*
X174440001Y-90745000I-249999J0D01*
G01*
X173539999Y-90745000D01*
G75*
G02*
X173290000Y-90495001I0J249999D01*
G01*
X173290000Y-89844999D01*
G75*
G02*
X173539999Y-89595000I249999J0D01*
G01*
G37*
%TD.AperFunction*%
%TO.P,C3,1*%
%TO.N,GND*%
%TA.AperFunction,SMDPad,CuDef*%
G36*
G01*
X173539999Y-87545000D02*
X174440001Y-87545000D01*
G75*
G02*
X174690000Y-87794999I0J-249999D01*
G01*
X174690000Y-88445001D01*
G75*
G02*
X174440001Y-88695000I-249999J0D01*
G01*
X173539999Y-88695000D01*
G75*
G02*
X173290000Y-88445001I0J249999D01*
G01*
X173290000Y-87794999D01*
G75*
G02*
X173539999Y-87545000I249999J0D01*
G01*
G37*
%TD.AperFunction*%
%TD*%
%TO.P,C2,2*%
%TO.N,GND*%
%TA.AperFunction,SMDPad,CuDef*%
G36*
G01*
X167150000Y-95319001D02*
X167150000Y-94418999D01*
G75*
G02*
X167399999Y-94169000I249999J0D01*
G01*
X168050001Y-94169000D01*
G75*
G02*
X168300000Y-94418999I0J-249999D01*
G01*
X168300000Y-95319001D01*
G75*
G02*
X168050001Y-95569000I-249999J0D01*
G01*
X167399999Y-95569000D01*
G75*
G02*
X167150000Y-95319001I0J249999D01*
G01*
G37*
%TD.AperFunction*%
%TO.P,C2,1*%
%TO.N,/V-*%
%TA.AperFunction,SMDPad,CuDef*%
G36*
G01*
X165100000Y-95319001D02*
X165100000Y-94418999D01*
G75*
G02*
X165349999Y-94169000I249999J0D01*
G01*
X166000001Y-94169000D01*
G75*
G02*
X166250000Y-94418999I0J-249999D01*
G01*
X166250000Y-95319001D01*
G75*
G02*
X166000001Y-95569000I-249999J0D01*
G01*
X165349999Y-95569000D01*
G75*
G02*
X165100000Y-95319001I0J249999D01*
G01*
G37*
%TD.AperFunction*%
%TD*%
%TO.P,C1,2*%
%TO.N,GND*%
%TA.AperFunction,SMDPad,CuDef*%
G36*
G01*
X167150000Y-97351001D02*
X167150000Y-96450999D01*
G75*
G02*
X167399999Y-96201000I249999J0D01*
G01*
X168050001Y-96201000D01*
G75*
G02*
X168300000Y-96450999I0J-249999D01*
G01*
X168300000Y-97351001D01*
G75*
G02*
X168050001Y-97601000I-249999J0D01*
G01*
X167399999Y-97601000D01*
G75*
G02*
X167150000Y-97351001I0J249999D01*
G01*
G37*
%TD.AperFunction*%
%TO.P,C1,1*%
%TO.N,/V-*%
%TA.AperFunction,SMDPad,CuDef*%
G36*
G01*
X165100000Y-97351001D02*
X165100000Y-96450999D01*
G75*
G02*
X165349999Y-96201000I249999J0D01*
G01*
X166000001Y-96201000D01*
G75*
G02*
X166250000Y-96450999I0J-249999D01*
G01*
X166250000Y-97351001D01*
G75*
G02*
X166000001Y-97601000I-249999J0D01*
G01*
X165349999Y-97601000D01*
G75*
G02*
X165100000Y-97351001I0J249999D01*
G01*
G37*
%TD.AperFunction*%
%TD*%
D18*
%TO.N,GND*%
X146558000Y-79248000D03*
X146558000Y-84963000D03*
X146558000Y-97155000D03*
X146558000Y-102870000D03*
X189103000Y-88646000D03*
X189230000Y-94234000D03*
X174879000Y-102489000D03*
X179070000Y-102743000D03*
X168783000Y-101600000D03*
X168783000Y-96901000D03*
X168783000Y-94869000D03*
X179324000Y-86614000D03*
X175895000Y-86741000D03*
X173990000Y-86741000D03*
X162687000Y-91059000D03*
%TO.N,/VOUTi*%
X170180000Y-87630000D03*
X172720000Y-92075000D03*
%TD*%
D19*
%TO.N,GND*%
X146540000Y-79230000D02*
X146558000Y-79248000D01*
X143060000Y-79230000D02*
X146540000Y-79230000D01*
X143253000Y-84963000D02*
X143060000Y-84770000D01*
X146558000Y-84963000D02*
X143253000Y-84963000D01*
X146483000Y-97230000D02*
X146558000Y-97155000D01*
X143060000Y-97230000D02*
X146483000Y-97230000D01*
X143160000Y-102870000D02*
X143060000Y-102770000D01*
X146558000Y-102870000D02*
X143160000Y-102870000D01*
X192700000Y-88584000D02*
X192786000Y-88670000D01*
X189796000Y-88584000D02*
X192700000Y-88584000D01*
X189127000Y-88670000D02*
X189103000Y-88646000D01*
X192786000Y-88670000D02*
X189127000Y-88670000D01*
X192762000Y-94234000D02*
X192786000Y-94210000D01*
X189230000Y-94234000D02*
X192762000Y-94234000D01*
X174818000Y-102550000D02*
X174879000Y-102489000D01*
X173480000Y-102550000D02*
X174818000Y-102550000D01*
X179070000Y-101618000D02*
X179070000Y-102743000D01*
X170180000Y-101600000D02*
X170053000Y-101600000D01*
X170053000Y-101600000D02*
X168783000Y-101600000D01*
X167725000Y-96901000D02*
X168783000Y-96901000D01*
X167725000Y-94869000D02*
X168783000Y-94869000D01*
X179390000Y-86680000D02*
X179324000Y-86614000D01*
X180723000Y-86680000D02*
X179390000Y-86680000D01*
X175895000Y-88120000D02*
X175895000Y-86741000D01*
X173990000Y-88120000D02*
X173990000Y-86741000D01*
X162628000Y-91000000D02*
X162687000Y-91059000D01*
X161290000Y-91000000D02*
X162628000Y-91000000D01*
%TO.N,/V-*%
X166435000Y-94109000D02*
X165675000Y-94869000D01*
X166435000Y-92905000D02*
X166435000Y-94109000D01*
X165675000Y-94869000D02*
X165675000Y-96901000D01*
X165675000Y-105470000D02*
X162560000Y-108585000D01*
D20*
X165675000Y-96901000D02*
X165675000Y-105470000D01*
X167645000Y-103500000D02*
X162560000Y-108585000D01*
X170180000Y-103500000D02*
X167645000Y-103500000D01*
D19*
%TO.N,/V+*%
X173795000Y-90365000D02*
X173990000Y-90170000D01*
X171385000Y-90365000D02*
X173795000Y-90365000D01*
X173990000Y-90170000D02*
X175895000Y-90170000D01*
X177044990Y-89020010D02*
X175895000Y-90170000D01*
X180732990Y-89020010D02*
X177044990Y-89020010D01*
X184023000Y-85730000D02*
X180732990Y-89020010D01*
D20*
X176530000Y-78237000D02*
X184023000Y-85730000D01*
X176530000Y-67310000D02*
X176530000Y-78237000D01*
D19*
%TO.N,/VINNi*%
X166120000Y-90050000D02*
X166435000Y-90365000D01*
X157990000Y-87990000D02*
X157990000Y-90050000D01*
X151915000Y-81915000D02*
X157990000Y-87990000D01*
X150495000Y-81915000D02*
X151915000Y-81915000D01*
X164585000Y-89270000D02*
X164585000Y-90050000D01*
X167495000Y-86360000D02*
X164585000Y-89270000D01*
X164585000Y-90050000D02*
X166120000Y-90050000D01*
X157990000Y-90050000D02*
X164585000Y-90050000D01*
X167495000Y-84201000D02*
X167495000Y-86360000D01*
%TO.N,Net-(C6-Pad1)*%
X179070000Y-97536000D02*
X179070000Y-99568000D01*
%TO.N,/VINPi*%
X166435000Y-91635000D02*
X166435000Y-91505000D01*
X165990000Y-91950000D02*
X157990000Y-91950000D01*
X166435000Y-91505000D02*
X165990000Y-91950000D01*
X157990000Y-91950000D02*
X157990000Y-94010000D01*
X150250000Y-99940000D02*
X152060000Y-99940000D01*
X152060000Y-99940000D02*
X152352500Y-99647500D01*
X152352500Y-99647500D02*
X152000000Y-100000000D01*
X157990000Y-94010000D02*
X152352500Y-99647500D01*
%TO.N,/VOUT*%
X184023000Y-91077000D02*
X183660000Y-91440000D01*
X184023000Y-87630000D02*
X184023000Y-91077000D01*
X183660000Y-91440000D02*
X186309000Y-91440000D01*
X192786000Y-91440000D02*
X186309000Y-91440000D01*
%TO.N,/VINP*%
X143120000Y-99940000D02*
X143060000Y-100000000D01*
X148200000Y-99940000D02*
X143120000Y-99940000D01*
X149225000Y-100965000D02*
X148200000Y-99940000D01*
X149225000Y-102870000D02*
X149225000Y-100965000D01*
%TO.N,/VINN*%
X148360000Y-82000000D02*
X148445000Y-81915000D01*
X143060000Y-82000000D02*
X148360000Y-82000000D01*
X149225000Y-81135000D02*
X148445000Y-81915000D01*
X149225000Y-78740000D02*
X149225000Y-81135000D01*
%TO.N,/VOUTi*%
X169545000Y-86360000D02*
X169545000Y-86995000D01*
X169545000Y-86995000D02*
X170180000Y-87630000D01*
X171825000Y-92075000D02*
X171385000Y-91635000D01*
X172720000Y-92075000D02*
X171825000Y-92075000D01*
X169545000Y-84201000D02*
X169545000Y-86360000D01*
X179070000Y-91440000D02*
X181610000Y-91440000D01*
X178435000Y-92075000D02*
X179070000Y-91440000D01*
X172720000Y-92075000D02*
X178435000Y-92075000D01*
X179070000Y-95486000D02*
X179070000Y-91440000D01*
%TD*%
M02*
