%TF.GenerationSoftware,KiCad,Pcbnew,(5.1.6-0-10_14)*%
%TF.CreationDate,2020-09-16T18:16:11-07:00*%
%TF.ProjectId,tia_dev_board,7469615f-6465-4765-9f62-6f6172642e6b,rev?*%
%TF.SameCoordinates,Original*%
%TF.FileFunction,Copper,L2,Bot*%
%TF.FilePolarity,Positive*%
%FSLAX46Y46*%
G04 Gerber Fmt 4.6, Leading zero omitted, Abs format (unit mm)*
G04 Created by KiCad (PCBNEW (5.1.6-0-10_14)) date 2020-09-16 18:16:11*
%MOMM*%
%LPD*%
G01*
G04 APERTURE LIST*
%TA.AperFunction,Conductor*%
%ADD10R,1.800000X2.500000*%
%TD*%
%TA.AperFunction,ViaPad*%
%ADD11C,0.500000*%
%TD*%
%TA.AperFunction,ComponentPad*%
%ADD12C,10.160000*%
%TD*%
%TA.AperFunction,ComponentPad*%
%ADD13C,2.000000*%
%TD*%
%TA.AperFunction,Conductor*%
%ADD14R,0.950000X0.460000*%
%TD*%
%TA.AperFunction,SMDPad,CuDef*%
%ADD15R,5.080000X1.600000*%
%TD*%
%TA.AperFunction,ComponentPad*%
%ADD16C,4.000000*%
%TD*%
%TA.AperFunction,ViaPad*%
%ADD17C,0.800000*%
%TD*%
%TA.AperFunction,Conductor*%
%ADD18C,0.250000*%
%TD*%
%TA.AperFunction,Conductor*%
%ADD19C,0.254000*%
%TD*%
G04 APERTURE END LIST*
D10*
%TO.N,N/C*%
%TO.C,U4*%
X168910000Y-91000000D03*
D11*
X169560000Y-92000000D03*
X168260000Y-92000000D03*
X169560000Y-91000000D03*
X168260000Y-91000000D03*
X169560000Y-90000000D03*
X168260000Y-90000000D03*
%TD*%
D12*
%TO.P,U3,1*%
%TO.N,/V-*%
X162560000Y-108585000D03*
%TD*%
%TO.P,U2,1*%
%TO.N,GND*%
X160020000Y-67310000D03*
%TD*%
%TO.P,U1,1*%
%TO.N,/V+*%
X176530000Y-67310000D03*
%TD*%
D13*
%TO.P,TP6,1*%
%TO.N,/VOUT*%
X186309000Y-91440000D03*
%TD*%
%TO.P,TP5,1*%
%TO.N,/VOUTi*%
X179070000Y-91440000D03*
%TD*%
%TO.P,TP4,1*%
%TO.N,/VINNi*%
X154000000Y-84000000D03*
%TD*%
%TO.P,TP3,1*%
%TO.N,/VINPi*%
X154000000Y-98000000D03*
%TD*%
%TO.P,TP2,1*%
%TO.N,/VINN*%
X149225000Y-78740000D03*
%TD*%
%TO.P,TP1,1*%
%TO.N,/VINP*%
X149225000Y-102870000D03*
%TD*%
D14*
%TO.N,GND*%
%TO.C,J3*%
X189796000Y-88584000D03*
X189796000Y-94296000D03*
D15*
%TD*%
%TO.P,J3,2*%
%TO.N,GND*%
X192786000Y-88670000D03*
%TO.P,J3,2*%
%TO.N,GND*%
X192786000Y-94210000D03*
%TD*%
D14*
%TO.N,GND*%
%TO.C,J2*%
X146050000Y-84856000D03*
X146050000Y-79144000D03*
D15*
%TD*%
%TO.P,J2,2*%
%TO.N,GND*%
X143060000Y-84770000D03*
%TO.P,J2,2*%
%TO.N,GND*%
X143060000Y-79230000D03*
%TD*%
D14*
%TO.N,GND*%
%TO.C,J1*%
X146050000Y-102856000D03*
X146050000Y-97144000D03*
D15*
%TD*%
%TO.P,J1,2*%
%TO.N,GND*%
X143060000Y-102770000D03*
%TO.P,J1,2*%
%TO.N,GND*%
X143060000Y-97230000D03*
%TD*%
D16*
%TO.P,H4,1*%
%TO.N,N/C*%
X188000000Y-115000000D03*
%TD*%
%TO.P,H3,1*%
%TO.N,N/C*%
X146000000Y-68000000D03*
%TD*%
%TO.P,H2,1*%
%TO.N,N/C*%
X188000000Y-68000000D03*
%TD*%
%TO.P,H1,1*%
%TO.N,N/C*%
X146000000Y-115000000D03*
%TD*%
D17*
%TO.N,GND*%
X146558000Y-79248000D03*
X146558000Y-84963000D03*
X146558000Y-97155000D03*
X146558000Y-102870000D03*
X189103000Y-88646000D03*
X189230000Y-94234000D03*
X174879000Y-102489000D03*
X179070000Y-102743000D03*
X168783000Y-101600000D03*
X168783000Y-96901000D03*
X168783000Y-94869000D03*
X179324000Y-86614000D03*
X175895000Y-86741000D03*
X173990000Y-86741000D03*
X162687000Y-91059000D03*
%TO.N,/VOUTi*%
X170180000Y-87630000D03*
X172720000Y-92075000D03*
%TD*%
D18*
%TO.N,GND*%
X143078000Y-79248000D02*
X143060000Y-79230000D01*
X146558000Y-79248000D02*
X143078000Y-79248000D01*
X146365000Y-84770000D02*
X146558000Y-84963000D01*
X143060000Y-84770000D02*
X146365000Y-84770000D01*
X143135000Y-97155000D02*
X143060000Y-97230000D01*
X146558000Y-97155000D02*
X143135000Y-97155000D01*
X146458000Y-102770000D02*
X146558000Y-102870000D01*
X143060000Y-102770000D02*
X146458000Y-102770000D01*
X192762000Y-88646000D02*
X192786000Y-88670000D01*
X189103000Y-88646000D02*
X192762000Y-88646000D01*
X189254000Y-94210000D02*
X189230000Y-94234000D01*
X192786000Y-94210000D02*
X189254000Y-94210000D01*
%TO.N,/VOUTi*%
X172720000Y-90170000D02*
X172720000Y-92075000D01*
X170180000Y-87630000D02*
X172720000Y-90170000D01*
%TD*%
D19*
%TO.N,GND*%
G36*
X194920000Y-87232481D02*
G01*
X193071750Y-87235000D01*
X192913000Y-87393750D01*
X192913000Y-88543000D01*
X192933000Y-88543000D01*
X192933000Y-88797000D01*
X192913000Y-88797000D01*
X192913000Y-89946250D01*
X193071750Y-90105000D01*
X194920001Y-90107519D01*
X194920001Y-92772481D01*
X193071750Y-92775000D01*
X192913000Y-92933750D01*
X192913000Y-94083000D01*
X192933000Y-94083000D01*
X192933000Y-94337000D01*
X192913000Y-94337000D01*
X192913000Y-95486250D01*
X193071750Y-95645000D01*
X194920001Y-95647519D01*
X194920001Y-118720000D01*
X140360000Y-118720000D01*
X140360000Y-114740475D01*
X143365000Y-114740475D01*
X143365000Y-115259525D01*
X143466261Y-115768601D01*
X143664893Y-116248141D01*
X143953262Y-116679715D01*
X144320285Y-117046738D01*
X144751859Y-117335107D01*
X145231399Y-117533739D01*
X145740475Y-117635000D01*
X146259525Y-117635000D01*
X146768601Y-117533739D01*
X147248141Y-117335107D01*
X147679715Y-117046738D01*
X148046738Y-116679715D01*
X148335107Y-116248141D01*
X148533739Y-115768601D01*
X148635000Y-115259525D01*
X148635000Y-114740475D01*
X185365000Y-114740475D01*
X185365000Y-115259525D01*
X185466261Y-115768601D01*
X185664893Y-116248141D01*
X185953262Y-116679715D01*
X186320285Y-117046738D01*
X186751859Y-117335107D01*
X187231399Y-117533739D01*
X187740475Y-117635000D01*
X188259525Y-117635000D01*
X188768601Y-117533739D01*
X189248141Y-117335107D01*
X189679715Y-117046738D01*
X190046738Y-116679715D01*
X190335107Y-116248141D01*
X190533739Y-115768601D01*
X190635000Y-115259525D01*
X190635000Y-114740475D01*
X190533739Y-114231399D01*
X190335107Y-113751859D01*
X190046738Y-113320285D01*
X189679715Y-112953262D01*
X189248141Y-112664893D01*
X188768601Y-112466261D01*
X188259525Y-112365000D01*
X187740475Y-112365000D01*
X187231399Y-112466261D01*
X186751859Y-112664893D01*
X186320285Y-112953262D01*
X185953262Y-113320285D01*
X185664893Y-113751859D01*
X185466261Y-114231399D01*
X185365000Y-114740475D01*
X148635000Y-114740475D01*
X148533739Y-114231399D01*
X148335107Y-113751859D01*
X148046738Y-113320285D01*
X147679715Y-112953262D01*
X147248141Y-112664893D01*
X146768601Y-112466261D01*
X146259525Y-112365000D01*
X145740475Y-112365000D01*
X145231399Y-112466261D01*
X144751859Y-112664893D01*
X144320285Y-112953262D01*
X143953262Y-113320285D01*
X143664893Y-113751859D01*
X143466261Y-114231399D01*
X143365000Y-114740475D01*
X140360000Y-114740475D01*
X140360000Y-108022122D01*
X156845000Y-108022122D01*
X156845000Y-109147878D01*
X157064625Y-110252004D01*
X157495433Y-111292067D01*
X158120870Y-112228100D01*
X158916900Y-113024130D01*
X159852933Y-113649567D01*
X160892996Y-114080375D01*
X161997122Y-114300000D01*
X163122878Y-114300000D01*
X164227004Y-114080375D01*
X165267067Y-113649567D01*
X166203100Y-113024130D01*
X166999130Y-112228100D01*
X167624567Y-111292067D01*
X168055375Y-110252004D01*
X168275000Y-109147878D01*
X168275000Y-108022122D01*
X168055375Y-106917996D01*
X167624567Y-105877933D01*
X166999130Y-104941900D01*
X166203100Y-104145870D01*
X165267067Y-103520433D01*
X164227004Y-103089625D01*
X163122878Y-102870000D01*
X161997122Y-102870000D01*
X160892996Y-103089625D01*
X159852933Y-103520433D01*
X158916900Y-104145870D01*
X158120870Y-104941900D01*
X157495433Y-105877933D01*
X157064625Y-106917996D01*
X156845000Y-108022122D01*
X140360000Y-108022122D01*
X140360000Y-104185038D01*
X140395518Y-104195812D01*
X140520000Y-104208072D01*
X142774250Y-104205000D01*
X142933000Y-104046250D01*
X142933000Y-102897000D01*
X143187000Y-102897000D01*
X143187000Y-104046250D01*
X143345750Y-104205000D01*
X145600000Y-104208072D01*
X145724482Y-104195812D01*
X145844180Y-104159502D01*
X145954494Y-104100537D01*
X146051185Y-104021185D01*
X146130537Y-103924494D01*
X146189502Y-103814180D01*
X146225812Y-103694482D01*
X146233291Y-103618541D01*
X146335750Y-103721000D01*
X146512221Y-103723944D01*
X146636923Y-103714179D01*
X146757324Y-103680274D01*
X146868797Y-103623531D01*
X146967058Y-103546131D01*
X147048331Y-103451048D01*
X147109493Y-103341937D01*
X147148193Y-103222990D01*
X147160000Y-103117750D01*
X147001250Y-102959000D01*
X146177000Y-102959000D01*
X146177000Y-102997750D01*
X146076250Y-102897000D01*
X143187000Y-102897000D01*
X142933000Y-102897000D01*
X142913000Y-102897000D01*
X142913000Y-102643000D01*
X142933000Y-102643000D01*
X142933000Y-101493750D01*
X143187000Y-101493750D01*
X143187000Y-102643000D01*
X144988750Y-102643000D01*
X145098750Y-102753000D01*
X145923000Y-102753000D01*
X145923000Y-102709000D01*
X146177000Y-102709000D01*
X146177000Y-102753000D01*
X147001250Y-102753000D01*
X147045283Y-102708967D01*
X147590000Y-102708967D01*
X147590000Y-103031033D01*
X147652832Y-103346912D01*
X147776082Y-103644463D01*
X147955013Y-103912252D01*
X148182748Y-104139987D01*
X148450537Y-104318918D01*
X148748088Y-104442168D01*
X149063967Y-104505000D01*
X149386033Y-104505000D01*
X149701912Y-104442168D01*
X149999463Y-104318918D01*
X150267252Y-104139987D01*
X150494987Y-103912252D01*
X150673918Y-103644463D01*
X150797168Y-103346912D01*
X150860000Y-103031033D01*
X150860000Y-102708967D01*
X150797168Y-102393088D01*
X150673918Y-102095537D01*
X150494987Y-101827748D01*
X150267252Y-101600013D01*
X149999463Y-101421082D01*
X149701912Y-101297832D01*
X149386033Y-101235000D01*
X149063967Y-101235000D01*
X148748088Y-101297832D01*
X148450537Y-101421082D01*
X148182748Y-101600013D01*
X147955013Y-101827748D01*
X147776082Y-102095537D01*
X147652832Y-102393088D01*
X147590000Y-102708967D01*
X147045283Y-102708967D01*
X147160000Y-102594250D01*
X147148193Y-102489010D01*
X147109493Y-102370063D01*
X147048331Y-102260952D01*
X146967058Y-102165869D01*
X146868797Y-102088469D01*
X146757324Y-102031726D01*
X146636923Y-101997821D01*
X146512221Y-101988056D01*
X146335750Y-101991000D01*
X146237359Y-102089391D01*
X146238072Y-101970000D01*
X146225812Y-101845518D01*
X146189502Y-101725820D01*
X146130537Y-101615506D01*
X146051185Y-101518815D01*
X145954494Y-101439463D01*
X145844180Y-101380498D01*
X145724482Y-101344188D01*
X145600000Y-101331928D01*
X143345750Y-101335000D01*
X143187000Y-101493750D01*
X142933000Y-101493750D01*
X142774250Y-101335000D01*
X140520000Y-101331928D01*
X140395518Y-101344188D01*
X140360000Y-101354962D01*
X140360000Y-98645038D01*
X140395518Y-98655812D01*
X140520000Y-98668072D01*
X142774250Y-98665000D01*
X142933000Y-98506250D01*
X142933000Y-97357000D01*
X143187000Y-97357000D01*
X143187000Y-98506250D01*
X143345750Y-98665000D01*
X145600000Y-98668072D01*
X145724482Y-98655812D01*
X145844180Y-98619502D01*
X145954494Y-98560537D01*
X146051185Y-98481185D01*
X146130537Y-98384494D01*
X146189502Y-98274180D01*
X146225812Y-98154482D01*
X146238072Y-98030000D01*
X146237359Y-97910609D01*
X146335750Y-98009000D01*
X146512221Y-98011944D01*
X146636923Y-98002179D01*
X146757324Y-97968274D01*
X146868797Y-97911531D01*
X146960918Y-97838967D01*
X152365000Y-97838967D01*
X152365000Y-98161033D01*
X152427832Y-98476912D01*
X152551082Y-98774463D01*
X152730013Y-99042252D01*
X152957748Y-99269987D01*
X153225537Y-99448918D01*
X153523088Y-99572168D01*
X153838967Y-99635000D01*
X154161033Y-99635000D01*
X154476912Y-99572168D01*
X154774463Y-99448918D01*
X155042252Y-99269987D01*
X155269987Y-99042252D01*
X155448918Y-98774463D01*
X155572168Y-98476912D01*
X155635000Y-98161033D01*
X155635000Y-97838967D01*
X155572168Y-97523088D01*
X155448918Y-97225537D01*
X155269987Y-96957748D01*
X155042252Y-96730013D01*
X154774463Y-96551082D01*
X154476912Y-96427832D01*
X154161033Y-96365000D01*
X153838967Y-96365000D01*
X153523088Y-96427832D01*
X153225537Y-96551082D01*
X152957748Y-96730013D01*
X152730013Y-96957748D01*
X152551082Y-97225537D01*
X152427832Y-97523088D01*
X152365000Y-97838967D01*
X146960918Y-97838967D01*
X146967058Y-97834131D01*
X147048331Y-97739048D01*
X147109493Y-97629937D01*
X147148193Y-97510990D01*
X147160000Y-97405750D01*
X147001250Y-97247000D01*
X146177000Y-97247000D01*
X146177000Y-97291000D01*
X145923000Y-97291000D01*
X145923000Y-97247000D01*
X145098750Y-97247000D01*
X144988750Y-97357000D01*
X143187000Y-97357000D01*
X142933000Y-97357000D01*
X142913000Y-97357000D01*
X142913000Y-97103000D01*
X142933000Y-97103000D01*
X142933000Y-95953750D01*
X143187000Y-95953750D01*
X143187000Y-97103000D01*
X146076250Y-97103000D01*
X146177000Y-97002250D01*
X146177000Y-97041000D01*
X147001250Y-97041000D01*
X147160000Y-96882250D01*
X147148193Y-96777010D01*
X147109493Y-96658063D01*
X147048331Y-96548952D01*
X146967058Y-96453869D01*
X146868797Y-96376469D01*
X146757324Y-96319726D01*
X146636923Y-96285821D01*
X146512221Y-96276056D01*
X146335750Y-96279000D01*
X146233291Y-96381459D01*
X146225812Y-96305518D01*
X146189502Y-96185820D01*
X146130537Y-96075506D01*
X146051185Y-95978815D01*
X145954494Y-95899463D01*
X145844180Y-95840498D01*
X145724482Y-95804188D01*
X145600000Y-95791928D01*
X143345750Y-95795000D01*
X143187000Y-95953750D01*
X142933000Y-95953750D01*
X142774250Y-95795000D01*
X140520000Y-95791928D01*
X140395518Y-95804188D01*
X140360000Y-95814962D01*
X140360000Y-94557750D01*
X188686000Y-94557750D01*
X188697807Y-94662990D01*
X188736507Y-94781937D01*
X188797669Y-94891048D01*
X188878942Y-94986131D01*
X188977203Y-95063531D01*
X189088676Y-95120274D01*
X189209077Y-95154179D01*
X189333779Y-95163944D01*
X189510250Y-95161000D01*
X189612709Y-95058541D01*
X189620188Y-95134482D01*
X189656498Y-95254180D01*
X189715463Y-95364494D01*
X189794815Y-95461185D01*
X189891506Y-95540537D01*
X190001820Y-95599502D01*
X190121518Y-95635812D01*
X190246000Y-95648072D01*
X192500250Y-95645000D01*
X192659000Y-95486250D01*
X192659000Y-94337000D01*
X189769750Y-94337000D01*
X189669000Y-94437750D01*
X189669000Y-94399000D01*
X188844750Y-94399000D01*
X188686000Y-94557750D01*
X140360000Y-94557750D01*
X140360000Y-94034250D01*
X188686000Y-94034250D01*
X188844750Y-94193000D01*
X189669000Y-94193000D01*
X189669000Y-94149000D01*
X189923000Y-94149000D01*
X189923000Y-94193000D01*
X190747250Y-94193000D01*
X190857250Y-94083000D01*
X192659000Y-94083000D01*
X192659000Y-92933750D01*
X192500250Y-92775000D01*
X190246000Y-92771928D01*
X190121518Y-92784188D01*
X190001820Y-92820498D01*
X189891506Y-92879463D01*
X189794815Y-92958815D01*
X189715463Y-93055506D01*
X189656498Y-93165820D01*
X189620188Y-93285518D01*
X189607928Y-93410000D01*
X189608641Y-93529391D01*
X189510250Y-93431000D01*
X189333779Y-93428056D01*
X189209077Y-93437821D01*
X189088676Y-93471726D01*
X188977203Y-93528469D01*
X188878942Y-93605869D01*
X188797669Y-93700952D01*
X188736507Y-93810063D01*
X188697807Y-93929010D01*
X188686000Y-94034250D01*
X140360000Y-94034250D01*
X140360000Y-89750000D01*
X167371928Y-89750000D01*
X167371928Y-92250000D01*
X167384188Y-92374482D01*
X167420498Y-92494180D01*
X167479463Y-92604494D01*
X167558815Y-92701185D01*
X167655506Y-92780537D01*
X167765820Y-92839502D01*
X167885518Y-92875812D01*
X168010000Y-92888072D01*
X169810000Y-92888072D01*
X169934482Y-92875812D01*
X170054180Y-92839502D01*
X170164494Y-92780537D01*
X170261185Y-92701185D01*
X170340537Y-92604494D01*
X170399502Y-92494180D01*
X170435812Y-92374482D01*
X170448072Y-92250000D01*
X170448072Y-89750000D01*
X170435812Y-89625518D01*
X170399502Y-89505820D01*
X170340537Y-89395506D01*
X170261185Y-89298815D01*
X170164494Y-89219463D01*
X170054180Y-89160498D01*
X169934482Y-89124188D01*
X169810000Y-89111928D01*
X168010000Y-89111928D01*
X167885518Y-89124188D01*
X167765820Y-89160498D01*
X167655506Y-89219463D01*
X167558815Y-89298815D01*
X167479463Y-89395506D01*
X167420498Y-89505820D01*
X167384188Y-89625518D01*
X167371928Y-89750000D01*
X140360000Y-89750000D01*
X140360000Y-87528061D01*
X169145000Y-87528061D01*
X169145000Y-87731939D01*
X169184774Y-87931898D01*
X169262795Y-88120256D01*
X169376063Y-88289774D01*
X169520226Y-88433937D01*
X169689744Y-88547205D01*
X169878102Y-88625226D01*
X170078061Y-88665000D01*
X170140199Y-88665000D01*
X171960000Y-90484803D01*
X171960001Y-91371288D01*
X171916063Y-91415226D01*
X171802795Y-91584744D01*
X171724774Y-91773102D01*
X171685000Y-91973061D01*
X171685000Y-92176939D01*
X171724774Y-92376898D01*
X171802795Y-92565256D01*
X171916063Y-92734774D01*
X172060226Y-92878937D01*
X172229744Y-92992205D01*
X172418102Y-93070226D01*
X172618061Y-93110000D01*
X172821939Y-93110000D01*
X173021898Y-93070226D01*
X173210256Y-92992205D01*
X173379774Y-92878937D01*
X173523937Y-92734774D01*
X173637205Y-92565256D01*
X173715226Y-92376898D01*
X173755000Y-92176939D01*
X173755000Y-91973061D01*
X173715226Y-91773102D01*
X173637205Y-91584744D01*
X173523937Y-91415226D01*
X173480000Y-91371289D01*
X173480000Y-91278967D01*
X177435000Y-91278967D01*
X177435000Y-91601033D01*
X177497832Y-91916912D01*
X177621082Y-92214463D01*
X177800013Y-92482252D01*
X178027748Y-92709987D01*
X178295537Y-92888918D01*
X178593088Y-93012168D01*
X178908967Y-93075000D01*
X179231033Y-93075000D01*
X179546912Y-93012168D01*
X179844463Y-92888918D01*
X180112252Y-92709987D01*
X180339987Y-92482252D01*
X180518918Y-92214463D01*
X180642168Y-91916912D01*
X180705000Y-91601033D01*
X180705000Y-91278967D01*
X184674000Y-91278967D01*
X184674000Y-91601033D01*
X184736832Y-91916912D01*
X184860082Y-92214463D01*
X185039013Y-92482252D01*
X185266748Y-92709987D01*
X185534537Y-92888918D01*
X185832088Y-93012168D01*
X186147967Y-93075000D01*
X186470033Y-93075000D01*
X186785912Y-93012168D01*
X187083463Y-92888918D01*
X187351252Y-92709987D01*
X187578987Y-92482252D01*
X187757918Y-92214463D01*
X187881168Y-91916912D01*
X187944000Y-91601033D01*
X187944000Y-91278967D01*
X187881168Y-90963088D01*
X187757918Y-90665537D01*
X187578987Y-90397748D01*
X187351252Y-90170013D01*
X187083463Y-89991082D01*
X186785912Y-89867832D01*
X186470033Y-89805000D01*
X186147967Y-89805000D01*
X185832088Y-89867832D01*
X185534537Y-89991082D01*
X185266748Y-90170013D01*
X185039013Y-90397748D01*
X184860082Y-90665537D01*
X184736832Y-90963088D01*
X184674000Y-91278967D01*
X180705000Y-91278967D01*
X180642168Y-90963088D01*
X180518918Y-90665537D01*
X180339987Y-90397748D01*
X180112252Y-90170013D01*
X179844463Y-89991082D01*
X179546912Y-89867832D01*
X179231033Y-89805000D01*
X178908967Y-89805000D01*
X178593088Y-89867832D01*
X178295537Y-89991082D01*
X178027748Y-90170013D01*
X177800013Y-90397748D01*
X177621082Y-90665537D01*
X177497832Y-90963088D01*
X177435000Y-91278967D01*
X173480000Y-91278967D01*
X173480000Y-90207322D01*
X173483676Y-90169999D01*
X173480000Y-90132676D01*
X173480000Y-90132667D01*
X173469003Y-90021014D01*
X173425546Y-89877753D01*
X173354974Y-89745724D01*
X173329087Y-89714180D01*
X173283799Y-89658996D01*
X173283795Y-89658992D01*
X173260001Y-89629999D01*
X173231009Y-89606206D01*
X172470553Y-88845750D01*
X188686000Y-88845750D01*
X188697807Y-88950990D01*
X188736507Y-89069937D01*
X188797669Y-89179048D01*
X188878942Y-89274131D01*
X188977203Y-89351531D01*
X189088676Y-89408274D01*
X189209077Y-89442179D01*
X189333779Y-89451944D01*
X189510250Y-89449000D01*
X189608641Y-89350609D01*
X189607928Y-89470000D01*
X189620188Y-89594482D01*
X189656498Y-89714180D01*
X189715463Y-89824494D01*
X189794815Y-89921185D01*
X189891506Y-90000537D01*
X190001820Y-90059502D01*
X190121518Y-90095812D01*
X190246000Y-90108072D01*
X192500250Y-90105000D01*
X192659000Y-89946250D01*
X192659000Y-88797000D01*
X190857250Y-88797000D01*
X190747250Y-88687000D01*
X189923000Y-88687000D01*
X189923000Y-88731000D01*
X189669000Y-88731000D01*
X189669000Y-88687000D01*
X188844750Y-88687000D01*
X188686000Y-88845750D01*
X172470553Y-88845750D01*
X171947053Y-88322250D01*
X188686000Y-88322250D01*
X188844750Y-88481000D01*
X189669000Y-88481000D01*
X189669000Y-88442250D01*
X189769750Y-88543000D01*
X192659000Y-88543000D01*
X192659000Y-87393750D01*
X192500250Y-87235000D01*
X190246000Y-87231928D01*
X190121518Y-87244188D01*
X190001820Y-87280498D01*
X189891506Y-87339463D01*
X189794815Y-87418815D01*
X189715463Y-87515506D01*
X189656498Y-87625820D01*
X189620188Y-87745518D01*
X189612709Y-87821459D01*
X189510250Y-87719000D01*
X189333779Y-87716056D01*
X189209077Y-87725821D01*
X189088676Y-87759726D01*
X188977203Y-87816469D01*
X188878942Y-87893869D01*
X188797669Y-87988952D01*
X188736507Y-88098063D01*
X188697807Y-88217010D01*
X188686000Y-88322250D01*
X171947053Y-88322250D01*
X171215000Y-87590199D01*
X171215000Y-87528061D01*
X171175226Y-87328102D01*
X171097205Y-87139744D01*
X170983937Y-86970226D01*
X170839774Y-86826063D01*
X170670256Y-86712795D01*
X170481898Y-86634774D01*
X170281939Y-86595000D01*
X170078061Y-86595000D01*
X169878102Y-86634774D01*
X169689744Y-86712795D01*
X169520226Y-86826063D01*
X169376063Y-86970226D01*
X169262795Y-87139744D01*
X169184774Y-87328102D01*
X169145000Y-87528061D01*
X140360000Y-87528061D01*
X140360000Y-86185038D01*
X140395518Y-86195812D01*
X140520000Y-86208072D01*
X142774250Y-86205000D01*
X142933000Y-86046250D01*
X142933000Y-84897000D01*
X143187000Y-84897000D01*
X143187000Y-86046250D01*
X143345750Y-86205000D01*
X145600000Y-86208072D01*
X145724482Y-86195812D01*
X145844180Y-86159502D01*
X145954494Y-86100537D01*
X146051185Y-86021185D01*
X146130537Y-85924494D01*
X146189502Y-85814180D01*
X146225812Y-85694482D01*
X146233291Y-85618541D01*
X146335750Y-85721000D01*
X146512221Y-85723944D01*
X146636923Y-85714179D01*
X146757324Y-85680274D01*
X146868797Y-85623531D01*
X146967058Y-85546131D01*
X147048331Y-85451048D01*
X147109493Y-85341937D01*
X147148193Y-85222990D01*
X147160000Y-85117750D01*
X147001250Y-84959000D01*
X146177000Y-84959000D01*
X146177000Y-84997750D01*
X146076250Y-84897000D01*
X143187000Y-84897000D01*
X142933000Y-84897000D01*
X142913000Y-84897000D01*
X142913000Y-84643000D01*
X142933000Y-84643000D01*
X142933000Y-83493750D01*
X143187000Y-83493750D01*
X143187000Y-84643000D01*
X144988750Y-84643000D01*
X145098750Y-84753000D01*
X145923000Y-84753000D01*
X145923000Y-84709000D01*
X146177000Y-84709000D01*
X146177000Y-84753000D01*
X147001250Y-84753000D01*
X147160000Y-84594250D01*
X147148193Y-84489010D01*
X147109493Y-84370063D01*
X147048331Y-84260952D01*
X146967058Y-84165869D01*
X146868797Y-84088469D01*
X146757324Y-84031726D01*
X146636923Y-83997821D01*
X146512221Y-83988056D01*
X146335750Y-83991000D01*
X146237359Y-84089391D01*
X146238072Y-83970000D01*
X146225812Y-83845518D01*
X146223825Y-83838967D01*
X152365000Y-83838967D01*
X152365000Y-84161033D01*
X152427832Y-84476912D01*
X152551082Y-84774463D01*
X152730013Y-85042252D01*
X152957748Y-85269987D01*
X153225537Y-85448918D01*
X153523088Y-85572168D01*
X153838967Y-85635000D01*
X154161033Y-85635000D01*
X154476912Y-85572168D01*
X154774463Y-85448918D01*
X155042252Y-85269987D01*
X155269987Y-85042252D01*
X155448918Y-84774463D01*
X155572168Y-84476912D01*
X155635000Y-84161033D01*
X155635000Y-83838967D01*
X155572168Y-83523088D01*
X155448918Y-83225537D01*
X155269987Y-82957748D01*
X155042252Y-82730013D01*
X154774463Y-82551082D01*
X154476912Y-82427832D01*
X154161033Y-82365000D01*
X153838967Y-82365000D01*
X153523088Y-82427832D01*
X153225537Y-82551082D01*
X152957748Y-82730013D01*
X152730013Y-82957748D01*
X152551082Y-83225537D01*
X152427832Y-83523088D01*
X152365000Y-83838967D01*
X146223825Y-83838967D01*
X146189502Y-83725820D01*
X146130537Y-83615506D01*
X146051185Y-83518815D01*
X145954494Y-83439463D01*
X145844180Y-83380498D01*
X145724482Y-83344188D01*
X145600000Y-83331928D01*
X143345750Y-83335000D01*
X143187000Y-83493750D01*
X142933000Y-83493750D01*
X142774250Y-83335000D01*
X140520000Y-83331928D01*
X140395518Y-83344188D01*
X140360000Y-83354962D01*
X140360000Y-80645038D01*
X140395518Y-80655812D01*
X140520000Y-80668072D01*
X142774250Y-80665000D01*
X142933000Y-80506250D01*
X142933000Y-79357000D01*
X143187000Y-79357000D01*
X143187000Y-80506250D01*
X143345750Y-80665000D01*
X145600000Y-80668072D01*
X145724482Y-80655812D01*
X145844180Y-80619502D01*
X145954494Y-80560537D01*
X146051185Y-80481185D01*
X146130537Y-80384494D01*
X146189502Y-80274180D01*
X146225812Y-80154482D01*
X146238072Y-80030000D01*
X146237359Y-79910609D01*
X146335750Y-80009000D01*
X146512221Y-80011944D01*
X146636923Y-80002179D01*
X146757324Y-79968274D01*
X146868797Y-79911531D01*
X146967058Y-79834131D01*
X147048331Y-79739048D01*
X147109493Y-79629937D01*
X147148193Y-79510990D01*
X147160000Y-79405750D01*
X147001250Y-79247000D01*
X146177000Y-79247000D01*
X146177000Y-79291000D01*
X145923000Y-79291000D01*
X145923000Y-79247000D01*
X145098750Y-79247000D01*
X144988750Y-79357000D01*
X143187000Y-79357000D01*
X142933000Y-79357000D01*
X142913000Y-79357000D01*
X142913000Y-79103000D01*
X142933000Y-79103000D01*
X142933000Y-77953750D01*
X143187000Y-77953750D01*
X143187000Y-79103000D01*
X146076250Y-79103000D01*
X146177000Y-79002250D01*
X146177000Y-79041000D01*
X147001250Y-79041000D01*
X147160000Y-78882250D01*
X147148193Y-78777010D01*
X147109493Y-78658063D01*
X147065156Y-78578967D01*
X147590000Y-78578967D01*
X147590000Y-78901033D01*
X147652832Y-79216912D01*
X147776082Y-79514463D01*
X147955013Y-79782252D01*
X148182748Y-80009987D01*
X148450537Y-80188918D01*
X148748088Y-80312168D01*
X149063967Y-80375000D01*
X149386033Y-80375000D01*
X149701912Y-80312168D01*
X149999463Y-80188918D01*
X150267252Y-80009987D01*
X150494987Y-79782252D01*
X150673918Y-79514463D01*
X150797168Y-79216912D01*
X150860000Y-78901033D01*
X150860000Y-78578967D01*
X150797168Y-78263088D01*
X150673918Y-77965537D01*
X150494987Y-77697748D01*
X150267252Y-77470013D01*
X149999463Y-77291082D01*
X149701912Y-77167832D01*
X149386033Y-77105000D01*
X149063967Y-77105000D01*
X148748088Y-77167832D01*
X148450537Y-77291082D01*
X148182748Y-77470013D01*
X147955013Y-77697748D01*
X147776082Y-77965537D01*
X147652832Y-78263088D01*
X147590000Y-78578967D01*
X147065156Y-78578967D01*
X147048331Y-78548952D01*
X146967058Y-78453869D01*
X146868797Y-78376469D01*
X146757324Y-78319726D01*
X146636923Y-78285821D01*
X146512221Y-78276056D01*
X146335750Y-78279000D01*
X146233291Y-78381459D01*
X146225812Y-78305518D01*
X146189502Y-78185820D01*
X146130537Y-78075506D01*
X146051185Y-77978815D01*
X145954494Y-77899463D01*
X145844180Y-77840498D01*
X145724482Y-77804188D01*
X145600000Y-77791928D01*
X143345750Y-77795000D01*
X143187000Y-77953750D01*
X142933000Y-77953750D01*
X142774250Y-77795000D01*
X140520000Y-77791928D01*
X140395518Y-77804188D01*
X140360000Y-77814962D01*
X140360000Y-71347196D01*
X156162409Y-71347196D01*
X156748124Y-72029416D01*
X157731704Y-72577045D01*
X158803223Y-72922265D01*
X159921501Y-73051808D01*
X161043565Y-72960697D01*
X162126294Y-72652433D01*
X163128079Y-72138863D01*
X163291876Y-72029416D01*
X163877591Y-71347196D01*
X160020000Y-67489605D01*
X156162409Y-71347196D01*
X140360000Y-71347196D01*
X140360000Y-67740475D01*
X143365000Y-67740475D01*
X143365000Y-68259525D01*
X143466261Y-68768601D01*
X143664893Y-69248141D01*
X143953262Y-69679715D01*
X144320285Y-70046738D01*
X144751859Y-70335107D01*
X145231399Y-70533739D01*
X145740475Y-70635000D01*
X146259525Y-70635000D01*
X146768601Y-70533739D01*
X147248141Y-70335107D01*
X147679715Y-70046738D01*
X148046738Y-69679715D01*
X148335107Y-69248141D01*
X148533739Y-68768601D01*
X148635000Y-68259525D01*
X148635000Y-67740475D01*
X148533739Y-67231399D01*
X148525497Y-67211501D01*
X154278192Y-67211501D01*
X154369303Y-68333565D01*
X154677567Y-69416294D01*
X155191137Y-70418079D01*
X155300584Y-70581876D01*
X155982804Y-71167591D01*
X159840395Y-67310000D01*
X160199605Y-67310000D01*
X164057196Y-71167591D01*
X164739416Y-70581876D01*
X165287045Y-69598296D01*
X165632265Y-68526777D01*
X165761808Y-67408499D01*
X165708105Y-66747122D01*
X170815000Y-66747122D01*
X170815000Y-67872878D01*
X171034625Y-68977004D01*
X171465433Y-70017067D01*
X172090870Y-70953100D01*
X172886900Y-71749130D01*
X173822933Y-72374567D01*
X174862996Y-72805375D01*
X175967122Y-73025000D01*
X177092878Y-73025000D01*
X178197004Y-72805375D01*
X179237067Y-72374567D01*
X180173100Y-71749130D01*
X180969130Y-70953100D01*
X181594567Y-70017067D01*
X182025375Y-68977004D01*
X182245000Y-67872878D01*
X182245000Y-67740475D01*
X185365000Y-67740475D01*
X185365000Y-68259525D01*
X185466261Y-68768601D01*
X185664893Y-69248141D01*
X185953262Y-69679715D01*
X186320285Y-70046738D01*
X186751859Y-70335107D01*
X187231399Y-70533739D01*
X187740475Y-70635000D01*
X188259525Y-70635000D01*
X188768601Y-70533739D01*
X189248141Y-70335107D01*
X189679715Y-70046738D01*
X190046738Y-69679715D01*
X190335107Y-69248141D01*
X190533739Y-68768601D01*
X190635000Y-68259525D01*
X190635000Y-67740475D01*
X190533739Y-67231399D01*
X190335107Y-66751859D01*
X190046738Y-66320285D01*
X189679715Y-65953262D01*
X189248141Y-65664893D01*
X188768601Y-65466261D01*
X188259525Y-65365000D01*
X187740475Y-65365000D01*
X187231399Y-65466261D01*
X186751859Y-65664893D01*
X186320285Y-65953262D01*
X185953262Y-66320285D01*
X185664893Y-66751859D01*
X185466261Y-67231399D01*
X185365000Y-67740475D01*
X182245000Y-67740475D01*
X182245000Y-66747122D01*
X182025375Y-65642996D01*
X181594567Y-64602933D01*
X180969130Y-63666900D01*
X180173100Y-62870870D01*
X179237067Y-62245433D01*
X178197004Y-61814625D01*
X177092878Y-61595000D01*
X175967122Y-61595000D01*
X174862996Y-61814625D01*
X173822933Y-62245433D01*
X172886900Y-62870870D01*
X172090870Y-63666900D01*
X171465433Y-64602933D01*
X171034625Y-65642996D01*
X170815000Y-66747122D01*
X165708105Y-66747122D01*
X165670697Y-66286435D01*
X165362433Y-65203706D01*
X164848863Y-64201921D01*
X164739416Y-64038124D01*
X164057196Y-63452409D01*
X160199605Y-67310000D01*
X159840395Y-67310000D01*
X155982804Y-63452409D01*
X155300584Y-64038124D01*
X154752955Y-65021704D01*
X154407735Y-66093223D01*
X154278192Y-67211501D01*
X148525497Y-67211501D01*
X148335107Y-66751859D01*
X148046738Y-66320285D01*
X147679715Y-65953262D01*
X147248141Y-65664893D01*
X146768601Y-65466261D01*
X146259525Y-65365000D01*
X145740475Y-65365000D01*
X145231399Y-65466261D01*
X144751859Y-65664893D01*
X144320285Y-65953262D01*
X143953262Y-66320285D01*
X143664893Y-66751859D01*
X143466261Y-67231399D01*
X143365000Y-67740475D01*
X140360000Y-67740475D01*
X140360000Y-63272804D01*
X156162409Y-63272804D01*
X160020000Y-67130395D01*
X163877591Y-63272804D01*
X163291876Y-62590584D01*
X162308296Y-62042955D01*
X161236777Y-61697735D01*
X160118499Y-61568192D01*
X158996435Y-61659303D01*
X157913706Y-61967567D01*
X156911921Y-62481137D01*
X156748124Y-62590584D01*
X156162409Y-63272804D01*
X140360000Y-63272804D01*
X140360000Y-59080000D01*
X194920000Y-59080000D01*
X194920000Y-87232481D01*
G37*
X194920000Y-87232481D02*
X193071750Y-87235000D01*
X192913000Y-87393750D01*
X192913000Y-88543000D01*
X192933000Y-88543000D01*
X192933000Y-88797000D01*
X192913000Y-88797000D01*
X192913000Y-89946250D01*
X193071750Y-90105000D01*
X194920001Y-90107519D01*
X194920001Y-92772481D01*
X193071750Y-92775000D01*
X192913000Y-92933750D01*
X192913000Y-94083000D01*
X192933000Y-94083000D01*
X192933000Y-94337000D01*
X192913000Y-94337000D01*
X192913000Y-95486250D01*
X193071750Y-95645000D01*
X194920001Y-95647519D01*
X194920001Y-118720000D01*
X140360000Y-118720000D01*
X140360000Y-114740475D01*
X143365000Y-114740475D01*
X143365000Y-115259525D01*
X143466261Y-115768601D01*
X143664893Y-116248141D01*
X143953262Y-116679715D01*
X144320285Y-117046738D01*
X144751859Y-117335107D01*
X145231399Y-117533739D01*
X145740475Y-117635000D01*
X146259525Y-117635000D01*
X146768601Y-117533739D01*
X147248141Y-117335107D01*
X147679715Y-117046738D01*
X148046738Y-116679715D01*
X148335107Y-116248141D01*
X148533739Y-115768601D01*
X148635000Y-115259525D01*
X148635000Y-114740475D01*
X185365000Y-114740475D01*
X185365000Y-115259525D01*
X185466261Y-115768601D01*
X185664893Y-116248141D01*
X185953262Y-116679715D01*
X186320285Y-117046738D01*
X186751859Y-117335107D01*
X187231399Y-117533739D01*
X187740475Y-117635000D01*
X188259525Y-117635000D01*
X188768601Y-117533739D01*
X189248141Y-117335107D01*
X189679715Y-117046738D01*
X190046738Y-116679715D01*
X190335107Y-116248141D01*
X190533739Y-115768601D01*
X190635000Y-115259525D01*
X190635000Y-114740475D01*
X190533739Y-114231399D01*
X190335107Y-113751859D01*
X190046738Y-113320285D01*
X189679715Y-112953262D01*
X189248141Y-112664893D01*
X188768601Y-112466261D01*
X188259525Y-112365000D01*
X187740475Y-112365000D01*
X187231399Y-112466261D01*
X186751859Y-112664893D01*
X186320285Y-112953262D01*
X185953262Y-113320285D01*
X185664893Y-113751859D01*
X185466261Y-114231399D01*
X185365000Y-114740475D01*
X148635000Y-114740475D01*
X148533739Y-114231399D01*
X148335107Y-113751859D01*
X148046738Y-113320285D01*
X147679715Y-112953262D01*
X147248141Y-112664893D01*
X146768601Y-112466261D01*
X146259525Y-112365000D01*
X145740475Y-112365000D01*
X145231399Y-112466261D01*
X144751859Y-112664893D01*
X144320285Y-112953262D01*
X143953262Y-113320285D01*
X143664893Y-113751859D01*
X143466261Y-114231399D01*
X143365000Y-114740475D01*
X140360000Y-114740475D01*
X140360000Y-108022122D01*
X156845000Y-108022122D01*
X156845000Y-109147878D01*
X157064625Y-110252004D01*
X157495433Y-111292067D01*
X158120870Y-112228100D01*
X158916900Y-113024130D01*
X159852933Y-113649567D01*
X160892996Y-114080375D01*
X161997122Y-114300000D01*
X163122878Y-114300000D01*
X164227004Y-114080375D01*
X165267067Y-113649567D01*
X166203100Y-113024130D01*
X166999130Y-112228100D01*
X167624567Y-111292067D01*
X168055375Y-110252004D01*
X168275000Y-109147878D01*
X168275000Y-108022122D01*
X168055375Y-106917996D01*
X167624567Y-105877933D01*
X166999130Y-104941900D01*
X166203100Y-104145870D01*
X165267067Y-103520433D01*
X164227004Y-103089625D01*
X163122878Y-102870000D01*
X161997122Y-102870000D01*
X160892996Y-103089625D01*
X159852933Y-103520433D01*
X158916900Y-104145870D01*
X158120870Y-104941900D01*
X157495433Y-105877933D01*
X157064625Y-106917996D01*
X156845000Y-108022122D01*
X140360000Y-108022122D01*
X140360000Y-104185038D01*
X140395518Y-104195812D01*
X140520000Y-104208072D01*
X142774250Y-104205000D01*
X142933000Y-104046250D01*
X142933000Y-102897000D01*
X143187000Y-102897000D01*
X143187000Y-104046250D01*
X143345750Y-104205000D01*
X145600000Y-104208072D01*
X145724482Y-104195812D01*
X145844180Y-104159502D01*
X145954494Y-104100537D01*
X146051185Y-104021185D01*
X146130537Y-103924494D01*
X146189502Y-103814180D01*
X146225812Y-103694482D01*
X146233291Y-103618541D01*
X146335750Y-103721000D01*
X146512221Y-103723944D01*
X146636923Y-103714179D01*
X146757324Y-103680274D01*
X146868797Y-103623531D01*
X146967058Y-103546131D01*
X147048331Y-103451048D01*
X147109493Y-103341937D01*
X147148193Y-103222990D01*
X147160000Y-103117750D01*
X147001250Y-102959000D01*
X146177000Y-102959000D01*
X146177000Y-102997750D01*
X146076250Y-102897000D01*
X143187000Y-102897000D01*
X142933000Y-102897000D01*
X142913000Y-102897000D01*
X142913000Y-102643000D01*
X142933000Y-102643000D01*
X142933000Y-101493750D01*
X143187000Y-101493750D01*
X143187000Y-102643000D01*
X144988750Y-102643000D01*
X145098750Y-102753000D01*
X145923000Y-102753000D01*
X145923000Y-102709000D01*
X146177000Y-102709000D01*
X146177000Y-102753000D01*
X147001250Y-102753000D01*
X147045283Y-102708967D01*
X147590000Y-102708967D01*
X147590000Y-103031033D01*
X147652832Y-103346912D01*
X147776082Y-103644463D01*
X147955013Y-103912252D01*
X148182748Y-104139987D01*
X148450537Y-104318918D01*
X148748088Y-104442168D01*
X149063967Y-104505000D01*
X149386033Y-104505000D01*
X149701912Y-104442168D01*
X149999463Y-104318918D01*
X150267252Y-104139987D01*
X150494987Y-103912252D01*
X150673918Y-103644463D01*
X150797168Y-103346912D01*
X150860000Y-103031033D01*
X150860000Y-102708967D01*
X150797168Y-102393088D01*
X150673918Y-102095537D01*
X150494987Y-101827748D01*
X150267252Y-101600013D01*
X149999463Y-101421082D01*
X149701912Y-101297832D01*
X149386033Y-101235000D01*
X149063967Y-101235000D01*
X148748088Y-101297832D01*
X148450537Y-101421082D01*
X148182748Y-101600013D01*
X147955013Y-101827748D01*
X147776082Y-102095537D01*
X147652832Y-102393088D01*
X147590000Y-102708967D01*
X147045283Y-102708967D01*
X147160000Y-102594250D01*
X147148193Y-102489010D01*
X147109493Y-102370063D01*
X147048331Y-102260952D01*
X146967058Y-102165869D01*
X146868797Y-102088469D01*
X146757324Y-102031726D01*
X146636923Y-101997821D01*
X146512221Y-101988056D01*
X146335750Y-101991000D01*
X146237359Y-102089391D01*
X146238072Y-101970000D01*
X146225812Y-101845518D01*
X146189502Y-101725820D01*
X146130537Y-101615506D01*
X146051185Y-101518815D01*
X145954494Y-101439463D01*
X145844180Y-101380498D01*
X145724482Y-101344188D01*
X145600000Y-101331928D01*
X143345750Y-101335000D01*
X143187000Y-101493750D01*
X142933000Y-101493750D01*
X142774250Y-101335000D01*
X140520000Y-101331928D01*
X140395518Y-101344188D01*
X140360000Y-101354962D01*
X140360000Y-98645038D01*
X140395518Y-98655812D01*
X140520000Y-98668072D01*
X142774250Y-98665000D01*
X142933000Y-98506250D01*
X142933000Y-97357000D01*
X143187000Y-97357000D01*
X143187000Y-98506250D01*
X143345750Y-98665000D01*
X145600000Y-98668072D01*
X145724482Y-98655812D01*
X145844180Y-98619502D01*
X145954494Y-98560537D01*
X146051185Y-98481185D01*
X146130537Y-98384494D01*
X146189502Y-98274180D01*
X146225812Y-98154482D01*
X146238072Y-98030000D01*
X146237359Y-97910609D01*
X146335750Y-98009000D01*
X146512221Y-98011944D01*
X146636923Y-98002179D01*
X146757324Y-97968274D01*
X146868797Y-97911531D01*
X146960918Y-97838967D01*
X152365000Y-97838967D01*
X152365000Y-98161033D01*
X152427832Y-98476912D01*
X152551082Y-98774463D01*
X152730013Y-99042252D01*
X152957748Y-99269987D01*
X153225537Y-99448918D01*
X153523088Y-99572168D01*
X153838967Y-99635000D01*
X154161033Y-99635000D01*
X154476912Y-99572168D01*
X154774463Y-99448918D01*
X155042252Y-99269987D01*
X155269987Y-99042252D01*
X155448918Y-98774463D01*
X155572168Y-98476912D01*
X155635000Y-98161033D01*
X155635000Y-97838967D01*
X155572168Y-97523088D01*
X155448918Y-97225537D01*
X155269987Y-96957748D01*
X155042252Y-96730013D01*
X154774463Y-96551082D01*
X154476912Y-96427832D01*
X154161033Y-96365000D01*
X153838967Y-96365000D01*
X153523088Y-96427832D01*
X153225537Y-96551082D01*
X152957748Y-96730013D01*
X152730013Y-96957748D01*
X152551082Y-97225537D01*
X152427832Y-97523088D01*
X152365000Y-97838967D01*
X146960918Y-97838967D01*
X146967058Y-97834131D01*
X147048331Y-97739048D01*
X147109493Y-97629937D01*
X147148193Y-97510990D01*
X147160000Y-97405750D01*
X147001250Y-97247000D01*
X146177000Y-97247000D01*
X146177000Y-97291000D01*
X145923000Y-97291000D01*
X145923000Y-97247000D01*
X145098750Y-97247000D01*
X144988750Y-97357000D01*
X143187000Y-97357000D01*
X142933000Y-97357000D01*
X142913000Y-97357000D01*
X142913000Y-97103000D01*
X142933000Y-97103000D01*
X142933000Y-95953750D01*
X143187000Y-95953750D01*
X143187000Y-97103000D01*
X146076250Y-97103000D01*
X146177000Y-97002250D01*
X146177000Y-97041000D01*
X147001250Y-97041000D01*
X147160000Y-96882250D01*
X147148193Y-96777010D01*
X147109493Y-96658063D01*
X147048331Y-96548952D01*
X146967058Y-96453869D01*
X146868797Y-96376469D01*
X146757324Y-96319726D01*
X146636923Y-96285821D01*
X146512221Y-96276056D01*
X146335750Y-96279000D01*
X146233291Y-96381459D01*
X146225812Y-96305518D01*
X146189502Y-96185820D01*
X146130537Y-96075506D01*
X146051185Y-95978815D01*
X145954494Y-95899463D01*
X145844180Y-95840498D01*
X145724482Y-95804188D01*
X145600000Y-95791928D01*
X143345750Y-95795000D01*
X143187000Y-95953750D01*
X142933000Y-95953750D01*
X142774250Y-95795000D01*
X140520000Y-95791928D01*
X140395518Y-95804188D01*
X140360000Y-95814962D01*
X140360000Y-94557750D01*
X188686000Y-94557750D01*
X188697807Y-94662990D01*
X188736507Y-94781937D01*
X188797669Y-94891048D01*
X188878942Y-94986131D01*
X188977203Y-95063531D01*
X189088676Y-95120274D01*
X189209077Y-95154179D01*
X189333779Y-95163944D01*
X189510250Y-95161000D01*
X189612709Y-95058541D01*
X189620188Y-95134482D01*
X189656498Y-95254180D01*
X189715463Y-95364494D01*
X189794815Y-95461185D01*
X189891506Y-95540537D01*
X190001820Y-95599502D01*
X190121518Y-95635812D01*
X190246000Y-95648072D01*
X192500250Y-95645000D01*
X192659000Y-95486250D01*
X192659000Y-94337000D01*
X189769750Y-94337000D01*
X189669000Y-94437750D01*
X189669000Y-94399000D01*
X188844750Y-94399000D01*
X188686000Y-94557750D01*
X140360000Y-94557750D01*
X140360000Y-94034250D01*
X188686000Y-94034250D01*
X188844750Y-94193000D01*
X189669000Y-94193000D01*
X189669000Y-94149000D01*
X189923000Y-94149000D01*
X189923000Y-94193000D01*
X190747250Y-94193000D01*
X190857250Y-94083000D01*
X192659000Y-94083000D01*
X192659000Y-92933750D01*
X192500250Y-92775000D01*
X190246000Y-92771928D01*
X190121518Y-92784188D01*
X190001820Y-92820498D01*
X189891506Y-92879463D01*
X189794815Y-92958815D01*
X189715463Y-93055506D01*
X189656498Y-93165820D01*
X189620188Y-93285518D01*
X189607928Y-93410000D01*
X189608641Y-93529391D01*
X189510250Y-93431000D01*
X189333779Y-93428056D01*
X189209077Y-93437821D01*
X189088676Y-93471726D01*
X188977203Y-93528469D01*
X188878942Y-93605869D01*
X188797669Y-93700952D01*
X188736507Y-93810063D01*
X188697807Y-93929010D01*
X188686000Y-94034250D01*
X140360000Y-94034250D01*
X140360000Y-89750000D01*
X167371928Y-89750000D01*
X167371928Y-92250000D01*
X167384188Y-92374482D01*
X167420498Y-92494180D01*
X167479463Y-92604494D01*
X167558815Y-92701185D01*
X167655506Y-92780537D01*
X167765820Y-92839502D01*
X167885518Y-92875812D01*
X168010000Y-92888072D01*
X169810000Y-92888072D01*
X169934482Y-92875812D01*
X170054180Y-92839502D01*
X170164494Y-92780537D01*
X170261185Y-92701185D01*
X170340537Y-92604494D01*
X170399502Y-92494180D01*
X170435812Y-92374482D01*
X170448072Y-92250000D01*
X170448072Y-89750000D01*
X170435812Y-89625518D01*
X170399502Y-89505820D01*
X170340537Y-89395506D01*
X170261185Y-89298815D01*
X170164494Y-89219463D01*
X170054180Y-89160498D01*
X169934482Y-89124188D01*
X169810000Y-89111928D01*
X168010000Y-89111928D01*
X167885518Y-89124188D01*
X167765820Y-89160498D01*
X167655506Y-89219463D01*
X167558815Y-89298815D01*
X167479463Y-89395506D01*
X167420498Y-89505820D01*
X167384188Y-89625518D01*
X167371928Y-89750000D01*
X140360000Y-89750000D01*
X140360000Y-87528061D01*
X169145000Y-87528061D01*
X169145000Y-87731939D01*
X169184774Y-87931898D01*
X169262795Y-88120256D01*
X169376063Y-88289774D01*
X169520226Y-88433937D01*
X169689744Y-88547205D01*
X169878102Y-88625226D01*
X170078061Y-88665000D01*
X170140199Y-88665000D01*
X171960000Y-90484803D01*
X171960001Y-91371288D01*
X171916063Y-91415226D01*
X171802795Y-91584744D01*
X171724774Y-91773102D01*
X171685000Y-91973061D01*
X171685000Y-92176939D01*
X171724774Y-92376898D01*
X171802795Y-92565256D01*
X171916063Y-92734774D01*
X172060226Y-92878937D01*
X172229744Y-92992205D01*
X172418102Y-93070226D01*
X172618061Y-93110000D01*
X172821939Y-93110000D01*
X173021898Y-93070226D01*
X173210256Y-92992205D01*
X173379774Y-92878937D01*
X173523937Y-92734774D01*
X173637205Y-92565256D01*
X173715226Y-92376898D01*
X173755000Y-92176939D01*
X173755000Y-91973061D01*
X173715226Y-91773102D01*
X173637205Y-91584744D01*
X173523937Y-91415226D01*
X173480000Y-91371289D01*
X173480000Y-91278967D01*
X177435000Y-91278967D01*
X177435000Y-91601033D01*
X177497832Y-91916912D01*
X177621082Y-92214463D01*
X177800013Y-92482252D01*
X178027748Y-92709987D01*
X178295537Y-92888918D01*
X178593088Y-93012168D01*
X178908967Y-93075000D01*
X179231033Y-93075000D01*
X179546912Y-93012168D01*
X179844463Y-92888918D01*
X180112252Y-92709987D01*
X180339987Y-92482252D01*
X180518918Y-92214463D01*
X180642168Y-91916912D01*
X180705000Y-91601033D01*
X180705000Y-91278967D01*
X184674000Y-91278967D01*
X184674000Y-91601033D01*
X184736832Y-91916912D01*
X184860082Y-92214463D01*
X185039013Y-92482252D01*
X185266748Y-92709987D01*
X185534537Y-92888918D01*
X185832088Y-93012168D01*
X186147967Y-93075000D01*
X186470033Y-93075000D01*
X186785912Y-93012168D01*
X187083463Y-92888918D01*
X187351252Y-92709987D01*
X187578987Y-92482252D01*
X187757918Y-92214463D01*
X187881168Y-91916912D01*
X187944000Y-91601033D01*
X187944000Y-91278967D01*
X187881168Y-90963088D01*
X187757918Y-90665537D01*
X187578987Y-90397748D01*
X187351252Y-90170013D01*
X187083463Y-89991082D01*
X186785912Y-89867832D01*
X186470033Y-89805000D01*
X186147967Y-89805000D01*
X185832088Y-89867832D01*
X185534537Y-89991082D01*
X185266748Y-90170013D01*
X185039013Y-90397748D01*
X184860082Y-90665537D01*
X184736832Y-90963088D01*
X184674000Y-91278967D01*
X180705000Y-91278967D01*
X180642168Y-90963088D01*
X180518918Y-90665537D01*
X180339987Y-90397748D01*
X180112252Y-90170013D01*
X179844463Y-89991082D01*
X179546912Y-89867832D01*
X179231033Y-89805000D01*
X178908967Y-89805000D01*
X178593088Y-89867832D01*
X178295537Y-89991082D01*
X178027748Y-90170013D01*
X177800013Y-90397748D01*
X177621082Y-90665537D01*
X177497832Y-90963088D01*
X177435000Y-91278967D01*
X173480000Y-91278967D01*
X173480000Y-90207322D01*
X173483676Y-90169999D01*
X173480000Y-90132676D01*
X173480000Y-90132667D01*
X173469003Y-90021014D01*
X173425546Y-89877753D01*
X173354974Y-89745724D01*
X173329087Y-89714180D01*
X173283799Y-89658996D01*
X173283795Y-89658992D01*
X173260001Y-89629999D01*
X173231009Y-89606206D01*
X172470553Y-88845750D01*
X188686000Y-88845750D01*
X188697807Y-88950990D01*
X188736507Y-89069937D01*
X188797669Y-89179048D01*
X188878942Y-89274131D01*
X188977203Y-89351531D01*
X189088676Y-89408274D01*
X189209077Y-89442179D01*
X189333779Y-89451944D01*
X189510250Y-89449000D01*
X189608641Y-89350609D01*
X189607928Y-89470000D01*
X189620188Y-89594482D01*
X189656498Y-89714180D01*
X189715463Y-89824494D01*
X189794815Y-89921185D01*
X189891506Y-90000537D01*
X190001820Y-90059502D01*
X190121518Y-90095812D01*
X190246000Y-90108072D01*
X192500250Y-90105000D01*
X192659000Y-89946250D01*
X192659000Y-88797000D01*
X190857250Y-88797000D01*
X190747250Y-88687000D01*
X189923000Y-88687000D01*
X189923000Y-88731000D01*
X189669000Y-88731000D01*
X189669000Y-88687000D01*
X188844750Y-88687000D01*
X188686000Y-88845750D01*
X172470553Y-88845750D01*
X171947053Y-88322250D01*
X188686000Y-88322250D01*
X188844750Y-88481000D01*
X189669000Y-88481000D01*
X189669000Y-88442250D01*
X189769750Y-88543000D01*
X192659000Y-88543000D01*
X192659000Y-87393750D01*
X192500250Y-87235000D01*
X190246000Y-87231928D01*
X190121518Y-87244188D01*
X190001820Y-87280498D01*
X189891506Y-87339463D01*
X189794815Y-87418815D01*
X189715463Y-87515506D01*
X189656498Y-87625820D01*
X189620188Y-87745518D01*
X189612709Y-87821459D01*
X189510250Y-87719000D01*
X189333779Y-87716056D01*
X189209077Y-87725821D01*
X189088676Y-87759726D01*
X188977203Y-87816469D01*
X188878942Y-87893869D01*
X188797669Y-87988952D01*
X188736507Y-88098063D01*
X188697807Y-88217010D01*
X188686000Y-88322250D01*
X171947053Y-88322250D01*
X171215000Y-87590199D01*
X171215000Y-87528061D01*
X171175226Y-87328102D01*
X171097205Y-87139744D01*
X170983937Y-86970226D01*
X170839774Y-86826063D01*
X170670256Y-86712795D01*
X170481898Y-86634774D01*
X170281939Y-86595000D01*
X170078061Y-86595000D01*
X169878102Y-86634774D01*
X169689744Y-86712795D01*
X169520226Y-86826063D01*
X169376063Y-86970226D01*
X169262795Y-87139744D01*
X169184774Y-87328102D01*
X169145000Y-87528061D01*
X140360000Y-87528061D01*
X140360000Y-86185038D01*
X140395518Y-86195812D01*
X140520000Y-86208072D01*
X142774250Y-86205000D01*
X142933000Y-86046250D01*
X142933000Y-84897000D01*
X143187000Y-84897000D01*
X143187000Y-86046250D01*
X143345750Y-86205000D01*
X145600000Y-86208072D01*
X145724482Y-86195812D01*
X145844180Y-86159502D01*
X145954494Y-86100537D01*
X146051185Y-86021185D01*
X146130537Y-85924494D01*
X146189502Y-85814180D01*
X146225812Y-85694482D01*
X146233291Y-85618541D01*
X146335750Y-85721000D01*
X146512221Y-85723944D01*
X146636923Y-85714179D01*
X146757324Y-85680274D01*
X146868797Y-85623531D01*
X146967058Y-85546131D01*
X147048331Y-85451048D01*
X147109493Y-85341937D01*
X147148193Y-85222990D01*
X147160000Y-85117750D01*
X147001250Y-84959000D01*
X146177000Y-84959000D01*
X146177000Y-84997750D01*
X146076250Y-84897000D01*
X143187000Y-84897000D01*
X142933000Y-84897000D01*
X142913000Y-84897000D01*
X142913000Y-84643000D01*
X142933000Y-84643000D01*
X142933000Y-83493750D01*
X143187000Y-83493750D01*
X143187000Y-84643000D01*
X144988750Y-84643000D01*
X145098750Y-84753000D01*
X145923000Y-84753000D01*
X145923000Y-84709000D01*
X146177000Y-84709000D01*
X146177000Y-84753000D01*
X147001250Y-84753000D01*
X147160000Y-84594250D01*
X147148193Y-84489010D01*
X147109493Y-84370063D01*
X147048331Y-84260952D01*
X146967058Y-84165869D01*
X146868797Y-84088469D01*
X146757324Y-84031726D01*
X146636923Y-83997821D01*
X146512221Y-83988056D01*
X146335750Y-83991000D01*
X146237359Y-84089391D01*
X146238072Y-83970000D01*
X146225812Y-83845518D01*
X146223825Y-83838967D01*
X152365000Y-83838967D01*
X152365000Y-84161033D01*
X152427832Y-84476912D01*
X152551082Y-84774463D01*
X152730013Y-85042252D01*
X152957748Y-85269987D01*
X153225537Y-85448918D01*
X153523088Y-85572168D01*
X153838967Y-85635000D01*
X154161033Y-85635000D01*
X154476912Y-85572168D01*
X154774463Y-85448918D01*
X155042252Y-85269987D01*
X155269987Y-85042252D01*
X155448918Y-84774463D01*
X155572168Y-84476912D01*
X155635000Y-84161033D01*
X155635000Y-83838967D01*
X155572168Y-83523088D01*
X155448918Y-83225537D01*
X155269987Y-82957748D01*
X155042252Y-82730013D01*
X154774463Y-82551082D01*
X154476912Y-82427832D01*
X154161033Y-82365000D01*
X153838967Y-82365000D01*
X153523088Y-82427832D01*
X153225537Y-82551082D01*
X152957748Y-82730013D01*
X152730013Y-82957748D01*
X152551082Y-83225537D01*
X152427832Y-83523088D01*
X152365000Y-83838967D01*
X146223825Y-83838967D01*
X146189502Y-83725820D01*
X146130537Y-83615506D01*
X146051185Y-83518815D01*
X145954494Y-83439463D01*
X145844180Y-83380498D01*
X145724482Y-83344188D01*
X145600000Y-83331928D01*
X143345750Y-83335000D01*
X143187000Y-83493750D01*
X142933000Y-83493750D01*
X142774250Y-83335000D01*
X140520000Y-83331928D01*
X140395518Y-83344188D01*
X140360000Y-83354962D01*
X140360000Y-80645038D01*
X140395518Y-80655812D01*
X140520000Y-80668072D01*
X142774250Y-80665000D01*
X142933000Y-80506250D01*
X142933000Y-79357000D01*
X143187000Y-79357000D01*
X143187000Y-80506250D01*
X143345750Y-80665000D01*
X145600000Y-80668072D01*
X145724482Y-80655812D01*
X145844180Y-80619502D01*
X145954494Y-80560537D01*
X146051185Y-80481185D01*
X146130537Y-80384494D01*
X146189502Y-80274180D01*
X146225812Y-80154482D01*
X146238072Y-80030000D01*
X146237359Y-79910609D01*
X146335750Y-80009000D01*
X146512221Y-80011944D01*
X146636923Y-80002179D01*
X146757324Y-79968274D01*
X146868797Y-79911531D01*
X146967058Y-79834131D01*
X147048331Y-79739048D01*
X147109493Y-79629937D01*
X147148193Y-79510990D01*
X147160000Y-79405750D01*
X147001250Y-79247000D01*
X146177000Y-79247000D01*
X146177000Y-79291000D01*
X145923000Y-79291000D01*
X145923000Y-79247000D01*
X145098750Y-79247000D01*
X144988750Y-79357000D01*
X143187000Y-79357000D01*
X142933000Y-79357000D01*
X142913000Y-79357000D01*
X142913000Y-79103000D01*
X142933000Y-79103000D01*
X142933000Y-77953750D01*
X143187000Y-77953750D01*
X143187000Y-79103000D01*
X146076250Y-79103000D01*
X146177000Y-79002250D01*
X146177000Y-79041000D01*
X147001250Y-79041000D01*
X147160000Y-78882250D01*
X147148193Y-78777010D01*
X147109493Y-78658063D01*
X147065156Y-78578967D01*
X147590000Y-78578967D01*
X147590000Y-78901033D01*
X147652832Y-79216912D01*
X147776082Y-79514463D01*
X147955013Y-79782252D01*
X148182748Y-80009987D01*
X148450537Y-80188918D01*
X148748088Y-80312168D01*
X149063967Y-80375000D01*
X149386033Y-80375000D01*
X149701912Y-80312168D01*
X149999463Y-80188918D01*
X150267252Y-80009987D01*
X150494987Y-79782252D01*
X150673918Y-79514463D01*
X150797168Y-79216912D01*
X150860000Y-78901033D01*
X150860000Y-78578967D01*
X150797168Y-78263088D01*
X150673918Y-77965537D01*
X150494987Y-77697748D01*
X150267252Y-77470013D01*
X149999463Y-77291082D01*
X149701912Y-77167832D01*
X149386033Y-77105000D01*
X149063967Y-77105000D01*
X148748088Y-77167832D01*
X148450537Y-77291082D01*
X148182748Y-77470013D01*
X147955013Y-77697748D01*
X147776082Y-77965537D01*
X147652832Y-78263088D01*
X147590000Y-78578967D01*
X147065156Y-78578967D01*
X147048331Y-78548952D01*
X146967058Y-78453869D01*
X146868797Y-78376469D01*
X146757324Y-78319726D01*
X146636923Y-78285821D01*
X146512221Y-78276056D01*
X146335750Y-78279000D01*
X146233291Y-78381459D01*
X146225812Y-78305518D01*
X146189502Y-78185820D01*
X146130537Y-78075506D01*
X146051185Y-77978815D01*
X145954494Y-77899463D01*
X145844180Y-77840498D01*
X145724482Y-77804188D01*
X145600000Y-77791928D01*
X143345750Y-77795000D01*
X143187000Y-77953750D01*
X142933000Y-77953750D01*
X142774250Y-77795000D01*
X140520000Y-77791928D01*
X140395518Y-77804188D01*
X140360000Y-77814962D01*
X140360000Y-71347196D01*
X156162409Y-71347196D01*
X156748124Y-72029416D01*
X157731704Y-72577045D01*
X158803223Y-72922265D01*
X159921501Y-73051808D01*
X161043565Y-72960697D01*
X162126294Y-72652433D01*
X163128079Y-72138863D01*
X163291876Y-72029416D01*
X163877591Y-71347196D01*
X160020000Y-67489605D01*
X156162409Y-71347196D01*
X140360000Y-71347196D01*
X140360000Y-67740475D01*
X143365000Y-67740475D01*
X143365000Y-68259525D01*
X143466261Y-68768601D01*
X143664893Y-69248141D01*
X143953262Y-69679715D01*
X144320285Y-70046738D01*
X144751859Y-70335107D01*
X145231399Y-70533739D01*
X145740475Y-70635000D01*
X146259525Y-70635000D01*
X146768601Y-70533739D01*
X147248141Y-70335107D01*
X147679715Y-70046738D01*
X148046738Y-69679715D01*
X148335107Y-69248141D01*
X148533739Y-68768601D01*
X148635000Y-68259525D01*
X148635000Y-67740475D01*
X148533739Y-67231399D01*
X148525497Y-67211501D01*
X154278192Y-67211501D01*
X154369303Y-68333565D01*
X154677567Y-69416294D01*
X155191137Y-70418079D01*
X155300584Y-70581876D01*
X155982804Y-71167591D01*
X159840395Y-67310000D01*
X160199605Y-67310000D01*
X164057196Y-71167591D01*
X164739416Y-70581876D01*
X165287045Y-69598296D01*
X165632265Y-68526777D01*
X165761808Y-67408499D01*
X165708105Y-66747122D01*
X170815000Y-66747122D01*
X170815000Y-67872878D01*
X171034625Y-68977004D01*
X171465433Y-70017067D01*
X172090870Y-70953100D01*
X172886900Y-71749130D01*
X173822933Y-72374567D01*
X174862996Y-72805375D01*
X175967122Y-73025000D01*
X177092878Y-73025000D01*
X178197004Y-72805375D01*
X179237067Y-72374567D01*
X180173100Y-71749130D01*
X180969130Y-70953100D01*
X181594567Y-70017067D01*
X182025375Y-68977004D01*
X182245000Y-67872878D01*
X182245000Y-67740475D01*
X185365000Y-67740475D01*
X185365000Y-68259525D01*
X185466261Y-68768601D01*
X185664893Y-69248141D01*
X185953262Y-69679715D01*
X186320285Y-70046738D01*
X186751859Y-70335107D01*
X187231399Y-70533739D01*
X187740475Y-70635000D01*
X188259525Y-70635000D01*
X188768601Y-70533739D01*
X189248141Y-70335107D01*
X189679715Y-70046738D01*
X190046738Y-69679715D01*
X190335107Y-69248141D01*
X190533739Y-68768601D01*
X190635000Y-68259525D01*
X190635000Y-67740475D01*
X190533739Y-67231399D01*
X190335107Y-66751859D01*
X190046738Y-66320285D01*
X189679715Y-65953262D01*
X189248141Y-65664893D01*
X188768601Y-65466261D01*
X188259525Y-65365000D01*
X187740475Y-65365000D01*
X187231399Y-65466261D01*
X186751859Y-65664893D01*
X186320285Y-65953262D01*
X185953262Y-66320285D01*
X185664893Y-66751859D01*
X185466261Y-67231399D01*
X185365000Y-67740475D01*
X182245000Y-67740475D01*
X182245000Y-66747122D01*
X182025375Y-65642996D01*
X181594567Y-64602933D01*
X180969130Y-63666900D01*
X180173100Y-62870870D01*
X179237067Y-62245433D01*
X178197004Y-61814625D01*
X177092878Y-61595000D01*
X175967122Y-61595000D01*
X174862996Y-61814625D01*
X173822933Y-62245433D01*
X172886900Y-62870870D01*
X172090870Y-63666900D01*
X171465433Y-64602933D01*
X171034625Y-65642996D01*
X170815000Y-66747122D01*
X165708105Y-66747122D01*
X165670697Y-66286435D01*
X165362433Y-65203706D01*
X164848863Y-64201921D01*
X164739416Y-64038124D01*
X164057196Y-63452409D01*
X160199605Y-67310000D01*
X159840395Y-67310000D01*
X155982804Y-63452409D01*
X155300584Y-64038124D01*
X154752955Y-65021704D01*
X154407735Y-66093223D01*
X154278192Y-67211501D01*
X148525497Y-67211501D01*
X148335107Y-66751859D01*
X148046738Y-66320285D01*
X147679715Y-65953262D01*
X147248141Y-65664893D01*
X146768601Y-65466261D01*
X146259525Y-65365000D01*
X145740475Y-65365000D01*
X145231399Y-65466261D01*
X144751859Y-65664893D01*
X144320285Y-65953262D01*
X143953262Y-66320285D01*
X143664893Y-66751859D01*
X143466261Y-67231399D01*
X143365000Y-67740475D01*
X140360000Y-67740475D01*
X140360000Y-63272804D01*
X156162409Y-63272804D01*
X160020000Y-67130395D01*
X163877591Y-63272804D01*
X163291876Y-62590584D01*
X162308296Y-62042955D01*
X161236777Y-61697735D01*
X160118499Y-61568192D01*
X158996435Y-61659303D01*
X157913706Y-61967567D01*
X156911921Y-62481137D01*
X156748124Y-62590584D01*
X156162409Y-63272804D01*
X140360000Y-63272804D01*
X140360000Y-59080000D01*
X194920000Y-59080000D01*
X194920000Y-87232481D01*
%TD*%
M02*
