%TF.GenerationSoftware,KiCad,Pcbnew,(5.1.6-0-10_14)*%
%TF.CreationDate,2020-10-22T07:10:05-07:00*%
%TF.ProjectId,tia_dev_board,7469615f-6465-4765-9f62-6f6172642e6b,rev?*%
%TF.SameCoordinates,Original*%
%TF.FileFunction,Legend,Top*%
%TF.FilePolarity,Positive*%
%FSLAX46Y46*%
G04 Gerber Fmt 4.6, Leading zero omitted, Abs format (unit mm)*
G04 Created by KiCad (PCBNEW (5.1.6-0-10_14)) date 2020-10-22 07:10:05*
%MOMM*%
%LPD*%
G01*
G04 APERTURE LIST*
%ADD10C,0.300000*%
%ADD11C,0.250000*%
%ADD12C,0.120000*%
%ADD13C,0.150000*%
G04 APERTURE END LIST*
D10*
X188365142Y-82998571D02*
X188865142Y-84498571D01*
X189365142Y-82998571D01*
X190150857Y-82998571D02*
X190436571Y-82998571D01*
X190579428Y-83070000D01*
X190722285Y-83212857D01*
X190793714Y-83498571D01*
X190793714Y-83998571D01*
X190722285Y-84284285D01*
X190579428Y-84427142D01*
X190436571Y-84498571D01*
X190150857Y-84498571D01*
X190008000Y-84427142D01*
X189865142Y-84284285D01*
X189793714Y-83998571D01*
X189793714Y-83498571D01*
X189865142Y-83212857D01*
X190008000Y-83070000D01*
X190150857Y-82998571D01*
X191436571Y-82998571D02*
X191436571Y-84212857D01*
X191508000Y-84355714D01*
X191579428Y-84427142D01*
X191722285Y-84498571D01*
X192008000Y-84498571D01*
X192150857Y-84427142D01*
X192222285Y-84355714D01*
X192293714Y-84212857D01*
X192293714Y-82998571D01*
X192793714Y-82998571D02*
X193650857Y-82998571D01*
X193222285Y-84498571D02*
X193222285Y-82998571D01*
X141192571Y-104842571D02*
X141692571Y-106342571D01*
X142192571Y-104842571D01*
X142692571Y-106342571D02*
X142692571Y-104842571D01*
X143406857Y-106342571D02*
X143406857Y-104842571D01*
X144264000Y-106342571D01*
X144264000Y-104842571D01*
X144978285Y-105771142D02*
X146121142Y-105771142D01*
X145549714Y-106342571D02*
X145549714Y-105199714D01*
X141446571Y-75886571D02*
X141946571Y-77386571D01*
X142446571Y-75886571D01*
X142946571Y-77386571D02*
X142946571Y-75886571D01*
X143660857Y-77386571D02*
X143660857Y-75886571D01*
X144518000Y-77386571D01*
X144518000Y-75886571D01*
X145232285Y-76815142D02*
X146375142Y-76815142D01*
D11*
X168939428Y-106258857D02*
X168939428Y-107116000D01*
X168882285Y-107287428D01*
X168768000Y-107401714D01*
X168596571Y-107458857D01*
X168482285Y-107458857D01*
X169682285Y-107458857D02*
X169568000Y-107401714D01*
X169510857Y-107344571D01*
X169453714Y-107230285D01*
X169453714Y-106887428D01*
X169510857Y-106773142D01*
X169568000Y-106716000D01*
X169682285Y-106658857D01*
X169853714Y-106658857D01*
X169968000Y-106716000D01*
X170025142Y-106773142D01*
X170082285Y-106887428D01*
X170082285Y-107230285D01*
X170025142Y-107344571D01*
X169968000Y-107401714D01*
X169853714Y-107458857D01*
X169682285Y-107458857D01*
X170596571Y-107458857D02*
X170596571Y-106658857D01*
X170596571Y-106887428D02*
X170653714Y-106773142D01*
X170710857Y-106716000D01*
X170825142Y-106658857D01*
X170939428Y-106658857D01*
X171853714Y-107458857D02*
X171853714Y-106258857D01*
X171853714Y-107401714D02*
X171739428Y-107458857D01*
X171510857Y-107458857D01*
X171396571Y-107401714D01*
X171339428Y-107344571D01*
X171282285Y-107230285D01*
X171282285Y-106887428D01*
X171339428Y-106773142D01*
X171396571Y-106716000D01*
X171510857Y-106658857D01*
X171739428Y-106658857D01*
X171853714Y-106716000D01*
X172939428Y-107458857D02*
X172939428Y-106830285D01*
X172882285Y-106716000D01*
X172768000Y-106658857D01*
X172539428Y-106658857D01*
X172425142Y-106716000D01*
X172939428Y-107401714D02*
X172825142Y-107458857D01*
X172539428Y-107458857D01*
X172425142Y-107401714D01*
X172368000Y-107287428D01*
X172368000Y-107173142D01*
X172425142Y-107058857D01*
X172539428Y-107001714D01*
X172825142Y-107001714D01*
X172939428Y-106944571D01*
X173510857Y-106658857D02*
X173510857Y-107458857D01*
X173510857Y-106773142D02*
X173568000Y-106716000D01*
X173682285Y-106658857D01*
X173853714Y-106658857D01*
X173968000Y-106716000D01*
X174025142Y-106830285D01*
X174025142Y-107458857D01*
X175510857Y-106830285D02*
X175910857Y-106830285D01*
X176082285Y-107458857D02*
X175510857Y-107458857D01*
X175510857Y-106258857D01*
X176082285Y-106258857D01*
X177110857Y-107458857D02*
X177110857Y-106258857D01*
X177110857Y-107401714D02*
X176996571Y-107458857D01*
X176768000Y-107458857D01*
X176653714Y-107401714D01*
X176596571Y-107344571D01*
X176539428Y-107230285D01*
X176539428Y-106887428D01*
X176596571Y-106773142D01*
X176653714Y-106716000D01*
X176768000Y-106658857D01*
X176996571Y-106658857D01*
X177110857Y-106716000D01*
X177682285Y-107458857D02*
X177682285Y-106658857D01*
X177682285Y-106773142D02*
X177739428Y-106716000D01*
X177853714Y-106658857D01*
X178025142Y-106658857D01*
X178139428Y-106716000D01*
X178196571Y-106830285D01*
X178196571Y-107458857D01*
X178196571Y-106830285D02*
X178253714Y-106716000D01*
X178368000Y-106658857D01*
X178539428Y-106658857D01*
X178653714Y-106716000D01*
X178710857Y-106830285D01*
X178710857Y-107458857D01*
X179796571Y-106658857D02*
X179796571Y-107458857D01*
X179282285Y-106658857D02*
X179282285Y-107287428D01*
X179339428Y-107401714D01*
X179453714Y-107458857D01*
X179625142Y-107458857D01*
X179739428Y-107401714D01*
X179796571Y-107344571D01*
X180368000Y-106658857D02*
X180368000Y-107458857D01*
X180368000Y-106773142D02*
X180425142Y-106716000D01*
X180539428Y-106658857D01*
X180710857Y-106658857D01*
X180825142Y-106716000D01*
X180882285Y-106830285D01*
X180882285Y-107458857D01*
X181968000Y-107458857D02*
X181968000Y-106258857D01*
X181968000Y-107401714D02*
X181853714Y-107458857D01*
X181625142Y-107458857D01*
X181510857Y-107401714D01*
X181453714Y-107344571D01*
X181396571Y-107230285D01*
X181396571Y-106887428D01*
X181453714Y-106773142D01*
X181510857Y-106716000D01*
X181625142Y-106658857D01*
X181853714Y-106658857D01*
X181968000Y-106716000D01*
X182482285Y-107401714D02*
X182596571Y-107458857D01*
X182825142Y-107458857D01*
X182939428Y-107401714D01*
X182996571Y-107287428D01*
X182996571Y-107230285D01*
X182939428Y-107116000D01*
X182825142Y-107058857D01*
X182653714Y-107058857D01*
X182539428Y-107001714D01*
X182482285Y-106887428D01*
X182482285Y-106830285D01*
X182539428Y-106716000D01*
X182653714Y-106658857D01*
X182825142Y-106658857D01*
X182939428Y-106716000D01*
X170425142Y-109166000D02*
X170996571Y-109166000D01*
X170310857Y-109508857D02*
X170710857Y-108308857D01*
X171110857Y-109508857D01*
X171510857Y-109508857D02*
X171510857Y-108308857D01*
X171796571Y-108308857D01*
X171968000Y-108366000D01*
X172082285Y-108480285D01*
X172139428Y-108594571D01*
X172196571Y-108823142D01*
X172196571Y-108994571D01*
X172139428Y-109223142D01*
X172082285Y-109337428D01*
X171968000Y-109451714D01*
X171796571Y-109508857D01*
X171510857Y-109508857D01*
X173225142Y-108708857D02*
X173225142Y-109508857D01*
X172939428Y-108251714D02*
X172653714Y-109108857D01*
X173396571Y-109108857D01*
X174368000Y-108308857D02*
X174139428Y-108308857D01*
X174025142Y-108366000D01*
X173968000Y-108423142D01*
X173853714Y-108594571D01*
X173796571Y-108823142D01*
X173796571Y-109280285D01*
X173853714Y-109394571D01*
X173910857Y-109451714D01*
X174025142Y-109508857D01*
X174253714Y-109508857D01*
X174368000Y-109451714D01*
X174425142Y-109394571D01*
X174482285Y-109280285D01*
X174482285Y-108994571D01*
X174425142Y-108880285D01*
X174368000Y-108823142D01*
X174253714Y-108766000D01*
X174025142Y-108766000D01*
X173910857Y-108823142D01*
X173853714Y-108880285D01*
X173796571Y-108994571D01*
X174939428Y-108423142D02*
X174996571Y-108366000D01*
X175110857Y-108308857D01*
X175396571Y-108308857D01*
X175510857Y-108366000D01*
X175568000Y-108423142D01*
X175625142Y-108537428D01*
X175625142Y-108651714D01*
X175568000Y-108823142D01*
X174882285Y-109508857D01*
X175625142Y-109508857D01*
X176710857Y-108308857D02*
X176139428Y-108308857D01*
X176082285Y-108880285D01*
X176139428Y-108823142D01*
X176253714Y-108766000D01*
X176539428Y-108766000D01*
X176653714Y-108823142D01*
X176710857Y-108880285D01*
X176768000Y-108994571D01*
X176768000Y-109280285D01*
X176710857Y-109394571D01*
X176653714Y-109451714D01*
X176539428Y-109508857D01*
X176253714Y-109508857D01*
X176139428Y-109451714D01*
X176082285Y-109394571D01*
X178025142Y-108308857D02*
X178710857Y-108308857D01*
X178368000Y-109508857D02*
X178368000Y-108308857D01*
X179110857Y-109508857D02*
X179110857Y-108308857D01*
X179625142Y-109166000D02*
X180196571Y-109166000D01*
X179510857Y-109508857D02*
X179910857Y-108308857D01*
X180310857Y-109508857D01*
X169939428Y-111558857D02*
X169939428Y-110358857D01*
X170225142Y-110358857D01*
X170396571Y-110416000D01*
X170510857Y-110530285D01*
X170568000Y-110644571D01*
X170625142Y-110873142D01*
X170625142Y-111044571D01*
X170568000Y-111273142D01*
X170510857Y-111387428D01*
X170396571Y-111501714D01*
X170225142Y-111558857D01*
X169939428Y-111558857D01*
X171596571Y-111501714D02*
X171482285Y-111558857D01*
X171253714Y-111558857D01*
X171139428Y-111501714D01*
X171082285Y-111387428D01*
X171082285Y-110930285D01*
X171139428Y-110816000D01*
X171253714Y-110758857D01*
X171482285Y-110758857D01*
X171596571Y-110816000D01*
X171653714Y-110930285D01*
X171653714Y-111044571D01*
X171082285Y-111158857D01*
X172053714Y-110758857D02*
X172339428Y-111558857D01*
X172625142Y-110758857D01*
X174396571Y-110930285D02*
X174568000Y-110987428D01*
X174625142Y-111044571D01*
X174682285Y-111158857D01*
X174682285Y-111330285D01*
X174625142Y-111444571D01*
X174568000Y-111501714D01*
X174453714Y-111558857D01*
X173996571Y-111558857D01*
X173996571Y-110358857D01*
X174396571Y-110358857D01*
X174510857Y-110416000D01*
X174568000Y-110473142D01*
X174625142Y-110587428D01*
X174625142Y-110701714D01*
X174568000Y-110816000D01*
X174510857Y-110873142D01*
X174396571Y-110930285D01*
X173996571Y-110930285D01*
X175368000Y-111558857D02*
X175253714Y-111501714D01*
X175196571Y-111444571D01*
X175139428Y-111330285D01*
X175139428Y-110987428D01*
X175196571Y-110873142D01*
X175253714Y-110816000D01*
X175368000Y-110758857D01*
X175539428Y-110758857D01*
X175653714Y-110816000D01*
X175710857Y-110873142D01*
X175768000Y-110987428D01*
X175768000Y-111330285D01*
X175710857Y-111444571D01*
X175653714Y-111501714D01*
X175539428Y-111558857D01*
X175368000Y-111558857D01*
X176796571Y-111558857D02*
X176796571Y-110930285D01*
X176739428Y-110816000D01*
X176625142Y-110758857D01*
X176396571Y-110758857D01*
X176282285Y-110816000D01*
X176796571Y-111501714D02*
X176682285Y-111558857D01*
X176396571Y-111558857D01*
X176282285Y-111501714D01*
X176225142Y-111387428D01*
X176225142Y-111273142D01*
X176282285Y-111158857D01*
X176396571Y-111101714D01*
X176682285Y-111101714D01*
X176796571Y-111044571D01*
X177368000Y-111558857D02*
X177368000Y-110758857D01*
X177368000Y-110987428D02*
X177425142Y-110873142D01*
X177482285Y-110816000D01*
X177596571Y-110758857D01*
X177710857Y-110758857D01*
X178625142Y-111558857D02*
X178625142Y-110358857D01*
X178625142Y-111501714D02*
X178510857Y-111558857D01*
X178282285Y-111558857D01*
X178168000Y-111501714D01*
X178110857Y-111444571D01*
X178053714Y-111330285D01*
X178053714Y-110987428D01*
X178110857Y-110873142D01*
X178168000Y-110816000D01*
X178282285Y-110758857D01*
X178510857Y-110758857D01*
X178625142Y-110816000D01*
X179996571Y-110758857D02*
X180282285Y-111558857D01*
X180568000Y-110758857D01*
X180968000Y-110473142D02*
X181025142Y-110416000D01*
X181139428Y-110358857D01*
X181425142Y-110358857D01*
X181539428Y-110416000D01*
X181596571Y-110473142D01*
X181653714Y-110587428D01*
X181653714Y-110701714D01*
X181596571Y-110873142D01*
X180910857Y-111558857D01*
X181653714Y-111558857D01*
D10*
X151003238Y-109140761D02*
X151669904Y-111140761D01*
X152336571Y-109140761D01*
X153003238Y-110378857D02*
X154527047Y-110378857D01*
X168783238Y-70024761D02*
X169449904Y-72024761D01*
X170116571Y-70024761D01*
X170783238Y-71262857D02*
X172307047Y-71262857D01*
X171545142Y-72024761D02*
X171545142Y-70500952D01*
X151384190Y-69612000D02*
X151193714Y-69516761D01*
X150908000Y-69516761D01*
X150622285Y-69612000D01*
X150431809Y-69802476D01*
X150336571Y-69992952D01*
X150241333Y-70373904D01*
X150241333Y-70659619D01*
X150336571Y-71040571D01*
X150431809Y-71231047D01*
X150622285Y-71421523D01*
X150908000Y-71516761D01*
X151098476Y-71516761D01*
X151384190Y-71421523D01*
X151479428Y-71326285D01*
X151479428Y-70659619D01*
X151098476Y-70659619D01*
X152336571Y-71516761D02*
X152336571Y-69516761D01*
X153479428Y-71516761D01*
X153479428Y-69516761D01*
X154431809Y-71516761D02*
X154431809Y-69516761D01*
X154908000Y-69516761D01*
X155193714Y-69612000D01*
X155384190Y-69802476D01*
X155479428Y-69992952D01*
X155574666Y-70373904D01*
X155574666Y-70659619D01*
X155479428Y-71040571D01*
X155384190Y-71231047D01*
X155193714Y-71421523D01*
X154908000Y-71516761D01*
X154431809Y-71516761D01*
D12*
%TO.C,U4*%
X168910000Y-88440000D02*
X165460000Y-88440000D01*
X168910000Y-88440000D02*
X170860000Y-88440000D01*
X168910000Y-93560000D02*
X166960000Y-93560000D01*
X168910000Y-93560000D02*
X170860000Y-93560000D01*
%TO.C,U3*%
X165266000Y-105918000D02*
G75*
G03*
X165266000Y-105918000I-5500000J0D01*
G01*
%TO.C,U2*%
X165520000Y-75692000D02*
G75*
G03*
X165520000Y-75692000I-5500000J0D01*
G01*
%TO.C,U1*%
X182538000Y-75438000D02*
G75*
G03*
X182538000Y-75438000I-5500000J0D01*
G01*
D13*
%TO.C,TP6*%
X187709000Y-91440000D02*
G75*
G03*
X187709000Y-91440000I-1400000J0D01*
G01*
%TO.C,TP5*%
X180470000Y-91440000D02*
G75*
G03*
X180470000Y-91440000I-1400000J0D01*
G01*
%TO.C,TP4*%
X155400000Y-84000000D02*
G75*
G03*
X155400000Y-84000000I-1400000J0D01*
G01*
%TO.C,TP3*%
X155400000Y-98000000D02*
G75*
G03*
X155400000Y-98000000I-1400000J0D01*
G01*
%TO.C,TP2*%
X150625000Y-78740000D02*
G75*
G03*
X150625000Y-78740000I-1400000J0D01*
G01*
%TO.C,TP1*%
X150625000Y-102870000D02*
G75*
G03*
X150625000Y-102870000I-1400000J0D01*
G01*
D12*
%TO.C,R5*%
X182896252Y-90730000D02*
X182373748Y-90730000D01*
X182896252Y-92150000D02*
X182373748Y-92150000D01*
%TO.C,R4*%
X178360000Y-96249748D02*
X178360000Y-96772252D01*
X179780000Y-96249748D02*
X179780000Y-96772252D01*
%TO.C,RF1*%
X168781252Y-85650000D02*
X168258748Y-85650000D01*
X168781252Y-87070000D02*
X168258748Y-87070000D01*
%TO.C,R2*%
X149604252Y-99239000D02*
X149081748Y-99239000D01*
X149604252Y-100659000D02*
X149081748Y-100659000D01*
%TO.C,R1*%
X149731252Y-81205000D02*
X149208748Y-81205000D01*
X149731252Y-82625000D02*
X149208748Y-82625000D01*
%TO.C,D3*%
X181423000Y-85030000D02*
X181423000Y-86080000D01*
X183223000Y-85030000D02*
X181423000Y-85030000D01*
X181423000Y-88330000D02*
X181423000Y-87280000D01*
X183823000Y-88330000D02*
X181423000Y-88330000D01*
%TO.C,D2*%
X172780000Y-104200000D02*
X172780000Y-103150000D01*
X170980000Y-104200000D02*
X172780000Y-104200000D01*
X172780000Y-100900000D02*
X172780000Y-101950000D01*
X170380000Y-100900000D02*
X172780000Y-100900000D01*
%TO.C,D1*%
X160590000Y-92650000D02*
X160590000Y-91600000D01*
X158790000Y-92650000D02*
X160590000Y-92650000D01*
X160590000Y-89350000D02*
X160590000Y-90400000D01*
X158190000Y-89350000D02*
X160590000Y-89350000D01*
%TO.C,C6*%
X178360000Y-100331748D02*
X178360000Y-100854252D01*
X179780000Y-100331748D02*
X179780000Y-100854252D01*
%TO.C,CF1*%
X168781252Y-83491000D02*
X168258748Y-83491000D01*
X168781252Y-84911000D02*
X168258748Y-84911000D01*
%TO.C,C4*%
X175185000Y-88883748D02*
X175185000Y-89406252D01*
X176605000Y-88883748D02*
X176605000Y-89406252D01*
%TO.C,C3*%
X173280000Y-88883748D02*
X173280000Y-89406252D01*
X174700000Y-88883748D02*
X174700000Y-89406252D01*
%TO.C,C2*%
X166438748Y-95579000D02*
X166961252Y-95579000D01*
X166438748Y-94159000D02*
X166961252Y-94159000D01*
%TO.C,C1*%
X166438748Y-97611000D02*
X166961252Y-97611000D01*
X166438748Y-96191000D02*
X166961252Y-96191000D01*
%TO.C,U4*%
D13*
X168148095Y-87052380D02*
X168148095Y-87861904D01*
X168195714Y-87957142D01*
X168243333Y-88004761D01*
X168338571Y-88052380D01*
X168529047Y-88052380D01*
X168624285Y-88004761D01*
X168671904Y-87957142D01*
X168719523Y-87861904D01*
X168719523Y-87052380D01*
X169624285Y-87385714D02*
X169624285Y-88052380D01*
X169386190Y-87004761D02*
X169148095Y-87719047D01*
X169767142Y-87719047D01*
%TO.C,TP6*%
X184547095Y-93392380D02*
X184880428Y-94392380D01*
X185213761Y-93392380D01*
X185737571Y-93392380D02*
X185928047Y-93392380D01*
X186023285Y-93440000D01*
X186118523Y-93535238D01*
X186166142Y-93725714D01*
X186166142Y-94059047D01*
X186118523Y-94249523D01*
X186023285Y-94344761D01*
X185928047Y-94392380D01*
X185737571Y-94392380D01*
X185642333Y-94344761D01*
X185547095Y-94249523D01*
X185499476Y-94059047D01*
X185499476Y-93725714D01*
X185547095Y-93535238D01*
X185642333Y-93440000D01*
X185737571Y-93392380D01*
X186594714Y-93392380D02*
X186594714Y-94201904D01*
X186642333Y-94297142D01*
X186689952Y-94344761D01*
X186785190Y-94392380D01*
X186975666Y-94392380D01*
X187070904Y-94344761D01*
X187118523Y-94297142D01*
X187166142Y-94201904D01*
X187166142Y-93392380D01*
X187499476Y-93392380D02*
X188070904Y-93392380D01*
X187785190Y-94392380D02*
X187785190Y-93392380D01*
%TO.C,TP5*%
X177070000Y-93392380D02*
X177403333Y-94392380D01*
X177736666Y-93392380D01*
X178260476Y-93392380D02*
X178450952Y-93392380D01*
X178546190Y-93440000D01*
X178641428Y-93535238D01*
X178689047Y-93725714D01*
X178689047Y-94059047D01*
X178641428Y-94249523D01*
X178546190Y-94344761D01*
X178450952Y-94392380D01*
X178260476Y-94392380D01*
X178165238Y-94344761D01*
X178070000Y-94249523D01*
X178022380Y-94059047D01*
X178022380Y-93725714D01*
X178070000Y-93535238D01*
X178165238Y-93440000D01*
X178260476Y-93392380D01*
X179117619Y-93392380D02*
X179117619Y-94201904D01*
X179165238Y-94297142D01*
X179212857Y-94344761D01*
X179308095Y-94392380D01*
X179498571Y-94392380D01*
X179593809Y-94344761D01*
X179641428Y-94297142D01*
X179689047Y-94201904D01*
X179689047Y-93392380D01*
X180022380Y-93392380D02*
X180593809Y-93392380D01*
X180308095Y-94392380D02*
X180308095Y-93392380D01*
X180927142Y-94392380D02*
X180927142Y-93725714D01*
X180927142Y-93392380D02*
X180879523Y-93440000D01*
X180927142Y-93487619D01*
X180974761Y-93440000D01*
X180927142Y-93392380D01*
X180927142Y-93487619D01*
%TO.C,TP4*%
X152142857Y-85952380D02*
X152476190Y-86952380D01*
X152809523Y-85952380D01*
X153142857Y-86952380D02*
X153142857Y-85952380D01*
X153619047Y-86952380D02*
X153619047Y-85952380D01*
X154190476Y-86952380D01*
X154190476Y-85952380D01*
X154666666Y-86952380D02*
X154666666Y-85952380D01*
X155238095Y-86952380D01*
X155238095Y-85952380D01*
X155714285Y-86952380D02*
X155714285Y-86285714D01*
X155714285Y-85952380D02*
X155666666Y-86000000D01*
X155714285Y-86047619D01*
X155761904Y-86000000D01*
X155714285Y-85952380D01*
X155714285Y-86047619D01*
%TO.C,TP3*%
X152166666Y-99952380D02*
X152500000Y-100952380D01*
X152833333Y-99952380D01*
X153166666Y-100952380D02*
X153166666Y-99952380D01*
X153642857Y-100952380D02*
X153642857Y-99952380D01*
X154214285Y-100952380D01*
X154214285Y-99952380D01*
X154690476Y-100952380D02*
X154690476Y-99952380D01*
X155071428Y-99952380D01*
X155166666Y-100000000D01*
X155214285Y-100047619D01*
X155261904Y-100142857D01*
X155261904Y-100285714D01*
X155214285Y-100380952D01*
X155166666Y-100428571D01*
X155071428Y-100476190D01*
X154690476Y-100476190D01*
X155690476Y-100952380D02*
X155690476Y-100285714D01*
X155690476Y-99952380D02*
X155642857Y-100000000D01*
X155690476Y-100047619D01*
X155738095Y-100000000D01*
X155690476Y-99952380D01*
X155690476Y-100047619D01*
%TO.C,TP2*%
X147605952Y-75652380D02*
X147939285Y-76652380D01*
X148272619Y-75652380D01*
X148605952Y-76652380D02*
X148605952Y-75652380D01*
X149082142Y-76652380D02*
X149082142Y-75652380D01*
X149653571Y-76652380D01*
X149653571Y-75652380D01*
X150129761Y-76652380D02*
X150129761Y-75652380D01*
X150701190Y-76652380D01*
X150701190Y-75652380D01*
%TO.C,TP1*%
X147629761Y-104822380D02*
X147963095Y-105822380D01*
X148296428Y-104822380D01*
X148629761Y-105822380D02*
X148629761Y-104822380D01*
X149105952Y-105822380D02*
X149105952Y-104822380D01*
X149677380Y-105822380D01*
X149677380Y-104822380D01*
X150153571Y-105822380D02*
X150153571Y-104822380D01*
X150534523Y-104822380D01*
X150629761Y-104870000D01*
X150677380Y-104917619D01*
X150725000Y-105012857D01*
X150725000Y-105155714D01*
X150677380Y-105250952D01*
X150629761Y-105298571D01*
X150534523Y-105346190D01*
X150153571Y-105346190D01*
%TO.C,R5*%
X182468333Y-93542380D02*
X182135000Y-93066190D01*
X181896904Y-93542380D02*
X181896904Y-92542380D01*
X182277857Y-92542380D01*
X182373095Y-92590000D01*
X182420714Y-92637619D01*
X182468333Y-92732857D01*
X182468333Y-92875714D01*
X182420714Y-92970952D01*
X182373095Y-93018571D01*
X182277857Y-93066190D01*
X181896904Y-93066190D01*
X183373095Y-92542380D02*
X182896904Y-92542380D01*
X182849285Y-93018571D01*
X182896904Y-92970952D01*
X182992142Y-92923333D01*
X183230238Y-92923333D01*
X183325476Y-92970952D01*
X183373095Y-93018571D01*
X183420714Y-93113809D01*
X183420714Y-93351904D01*
X183373095Y-93447142D01*
X183325476Y-93494761D01*
X183230238Y-93542380D01*
X182992142Y-93542380D01*
X182896904Y-93494761D01*
X182849285Y-93447142D01*
%TO.C,R4*%
X181172380Y-96677666D02*
X180696190Y-97011000D01*
X181172380Y-97249095D02*
X180172380Y-97249095D01*
X180172380Y-96868142D01*
X180220000Y-96772904D01*
X180267619Y-96725285D01*
X180362857Y-96677666D01*
X180505714Y-96677666D01*
X180600952Y-96725285D01*
X180648571Y-96772904D01*
X180696190Y-96868142D01*
X180696190Y-97249095D01*
X180505714Y-95820523D02*
X181172380Y-95820523D01*
X180124761Y-96058619D02*
X180839047Y-96296714D01*
X180839047Y-95677666D01*
%TO.C,RF1*%
X164504761Y-86812380D02*
X164171428Y-86336190D01*
X163933333Y-86812380D02*
X163933333Y-85812380D01*
X164314285Y-85812380D01*
X164409523Y-85860000D01*
X164457142Y-85907619D01*
X164504761Y-86002857D01*
X164504761Y-86145714D01*
X164457142Y-86240952D01*
X164409523Y-86288571D01*
X164314285Y-86336190D01*
X163933333Y-86336190D01*
X165266666Y-86288571D02*
X164933333Y-86288571D01*
X164933333Y-86812380D02*
X164933333Y-85812380D01*
X165409523Y-85812380D01*
X166314285Y-86812380D02*
X165742857Y-86812380D01*
X166028571Y-86812380D02*
X166028571Y-85812380D01*
X165933333Y-85955238D01*
X165838095Y-86050476D01*
X165742857Y-86098095D01*
%TO.C,R2*%
X149176333Y-98251380D02*
X148843000Y-97775190D01*
X148604904Y-98251380D02*
X148604904Y-97251380D01*
X148985857Y-97251380D01*
X149081095Y-97299000D01*
X149128714Y-97346619D01*
X149176333Y-97441857D01*
X149176333Y-97584714D01*
X149128714Y-97679952D01*
X149081095Y-97727571D01*
X148985857Y-97775190D01*
X148604904Y-97775190D01*
X149557285Y-97346619D02*
X149604904Y-97299000D01*
X149700142Y-97251380D01*
X149938238Y-97251380D01*
X150033476Y-97299000D01*
X150081095Y-97346619D01*
X150128714Y-97441857D01*
X150128714Y-97537095D01*
X150081095Y-97679952D01*
X149509666Y-98251380D01*
X150128714Y-98251380D01*
%TO.C,R1*%
X149303333Y-84017380D02*
X148970000Y-83541190D01*
X148731904Y-84017380D02*
X148731904Y-83017380D01*
X149112857Y-83017380D01*
X149208095Y-83065000D01*
X149255714Y-83112619D01*
X149303333Y-83207857D01*
X149303333Y-83350714D01*
X149255714Y-83445952D01*
X149208095Y-83493571D01*
X149112857Y-83541190D01*
X148731904Y-83541190D01*
X150255714Y-84017380D02*
X149684285Y-84017380D01*
X149970000Y-84017380D02*
X149970000Y-83017380D01*
X149874761Y-83160238D01*
X149779523Y-83255476D01*
X149684285Y-83303095D01*
%TO.C,H4*%
X187198095Y-109410380D02*
X187198095Y-108410380D01*
X187198095Y-108886571D02*
X187769523Y-108886571D01*
X187769523Y-109410380D02*
X187769523Y-108410380D01*
X188674285Y-108743714D02*
X188674285Y-109410380D01*
X188436190Y-108362761D02*
X188198095Y-109077047D01*
X188817142Y-109077047D01*
%TO.C,H3*%
X145034095Y-72072380D02*
X145034095Y-71072380D01*
X145034095Y-71548571D02*
X145605523Y-71548571D01*
X145605523Y-72072380D02*
X145605523Y-71072380D01*
X145986476Y-71072380D02*
X146605523Y-71072380D01*
X146272190Y-71453333D01*
X146415047Y-71453333D01*
X146510285Y-71500952D01*
X146557904Y-71548571D01*
X146605523Y-71643809D01*
X146605523Y-71881904D01*
X146557904Y-71977142D01*
X146510285Y-72024761D01*
X146415047Y-72072380D01*
X146129333Y-72072380D01*
X146034095Y-72024761D01*
X145986476Y-71977142D01*
%TO.C,H2*%
X187452095Y-71310380D02*
X187452095Y-70310380D01*
X187452095Y-70786571D02*
X188023523Y-70786571D01*
X188023523Y-71310380D02*
X188023523Y-70310380D01*
X188452095Y-70405619D02*
X188499714Y-70358000D01*
X188594952Y-70310380D01*
X188833047Y-70310380D01*
X188928285Y-70358000D01*
X188975904Y-70405619D01*
X189023523Y-70500857D01*
X189023523Y-70596095D01*
X188975904Y-70738952D01*
X188404476Y-71310380D01*
X189023523Y-71310380D01*
%TO.C,H1*%
X145288095Y-109918380D02*
X145288095Y-108918380D01*
X145288095Y-109394571D02*
X145859523Y-109394571D01*
X145859523Y-109918380D02*
X145859523Y-108918380D01*
X146859523Y-109918380D02*
X146288095Y-109918380D01*
X146573809Y-109918380D02*
X146573809Y-108918380D01*
X146478571Y-109061238D01*
X146383333Y-109156476D01*
X146288095Y-109204095D01*
%TO.C,D3*%
X181634904Y-89632380D02*
X181634904Y-88632380D01*
X181873000Y-88632380D01*
X182015857Y-88680000D01*
X182111095Y-88775238D01*
X182158714Y-88870476D01*
X182206333Y-89060952D01*
X182206333Y-89203809D01*
X182158714Y-89394285D01*
X182111095Y-89489523D01*
X182015857Y-89584761D01*
X181873000Y-89632380D01*
X181634904Y-89632380D01*
X182539666Y-88632380D02*
X183158714Y-88632380D01*
X182825380Y-89013333D01*
X182968238Y-89013333D01*
X183063476Y-89060952D01*
X183111095Y-89108571D01*
X183158714Y-89203809D01*
X183158714Y-89441904D01*
X183111095Y-89537142D01*
X183063476Y-89584761D01*
X182968238Y-89632380D01*
X182682523Y-89632380D01*
X182587285Y-89584761D01*
X182539666Y-89537142D01*
%TO.C,D2*%
X171091904Y-100502380D02*
X171091904Y-99502380D01*
X171330000Y-99502380D01*
X171472857Y-99550000D01*
X171568095Y-99645238D01*
X171615714Y-99740476D01*
X171663333Y-99930952D01*
X171663333Y-100073809D01*
X171615714Y-100264285D01*
X171568095Y-100359523D01*
X171472857Y-100454761D01*
X171330000Y-100502380D01*
X171091904Y-100502380D01*
X172044285Y-99597619D02*
X172091904Y-99550000D01*
X172187142Y-99502380D01*
X172425238Y-99502380D01*
X172520476Y-99550000D01*
X172568095Y-99597619D01*
X172615714Y-99692857D01*
X172615714Y-99788095D01*
X172568095Y-99930952D01*
X171996666Y-100502380D01*
X172615714Y-100502380D01*
%TO.C,D1*%
X158901904Y-88952380D02*
X158901904Y-87952380D01*
X159140000Y-87952380D01*
X159282857Y-88000000D01*
X159378095Y-88095238D01*
X159425714Y-88190476D01*
X159473333Y-88380952D01*
X159473333Y-88523809D01*
X159425714Y-88714285D01*
X159378095Y-88809523D01*
X159282857Y-88904761D01*
X159140000Y-88952380D01*
X158901904Y-88952380D01*
X160425714Y-88952380D02*
X159854285Y-88952380D01*
X160140000Y-88952380D02*
X160140000Y-87952380D01*
X160044761Y-88095238D01*
X159949523Y-88190476D01*
X159854285Y-88238095D01*
%TO.C,C6*%
X181077142Y-100759666D02*
X181124761Y-100807285D01*
X181172380Y-100950142D01*
X181172380Y-101045380D01*
X181124761Y-101188238D01*
X181029523Y-101283476D01*
X180934285Y-101331095D01*
X180743809Y-101378714D01*
X180600952Y-101378714D01*
X180410476Y-101331095D01*
X180315238Y-101283476D01*
X180220000Y-101188238D01*
X180172380Y-101045380D01*
X180172380Y-100950142D01*
X180220000Y-100807285D01*
X180267619Y-100759666D01*
X180172380Y-99902523D02*
X180172380Y-100093000D01*
X180220000Y-100188238D01*
X180267619Y-100235857D01*
X180410476Y-100331095D01*
X180600952Y-100378714D01*
X180981904Y-100378714D01*
X181077142Y-100331095D01*
X181124761Y-100283476D01*
X181172380Y-100188238D01*
X181172380Y-99997761D01*
X181124761Y-99902523D01*
X181077142Y-99854904D01*
X180981904Y-99807285D01*
X180743809Y-99807285D01*
X180648571Y-99854904D01*
X180600952Y-99902523D01*
X180553333Y-99997761D01*
X180553333Y-100188238D01*
X180600952Y-100283476D01*
X180648571Y-100331095D01*
X180743809Y-100378714D01*
%TO.C,CF1*%
X164359761Y-84558142D02*
X164312142Y-84605761D01*
X164169285Y-84653380D01*
X164074047Y-84653380D01*
X163931190Y-84605761D01*
X163835952Y-84510523D01*
X163788333Y-84415285D01*
X163740714Y-84224809D01*
X163740714Y-84081952D01*
X163788333Y-83891476D01*
X163835952Y-83796238D01*
X163931190Y-83701000D01*
X164074047Y-83653380D01*
X164169285Y-83653380D01*
X164312142Y-83701000D01*
X164359761Y-83748619D01*
X165121666Y-84129571D02*
X164788333Y-84129571D01*
X164788333Y-84653380D02*
X164788333Y-83653380D01*
X165264523Y-83653380D01*
X166169285Y-84653380D02*
X165597857Y-84653380D01*
X165883571Y-84653380D02*
X165883571Y-83653380D01*
X165788333Y-83796238D01*
X165693095Y-83891476D01*
X165597857Y-83939095D01*
%TO.C,C4*%
X176252142Y-85510666D02*
X176299761Y-85558285D01*
X176347380Y-85701142D01*
X176347380Y-85796380D01*
X176299761Y-85939238D01*
X176204523Y-86034476D01*
X176109285Y-86082095D01*
X175918809Y-86129714D01*
X175775952Y-86129714D01*
X175585476Y-86082095D01*
X175490238Y-86034476D01*
X175395000Y-85939238D01*
X175347380Y-85796380D01*
X175347380Y-85701142D01*
X175395000Y-85558285D01*
X175442619Y-85510666D01*
X175680714Y-84653523D02*
X176347380Y-84653523D01*
X175299761Y-84891619D02*
X176014047Y-85129714D01*
X176014047Y-84510666D01*
%TO.C,C3*%
X174347142Y-85510666D02*
X174394761Y-85558285D01*
X174442380Y-85701142D01*
X174442380Y-85796380D01*
X174394761Y-85939238D01*
X174299523Y-86034476D01*
X174204285Y-86082095D01*
X174013809Y-86129714D01*
X173870952Y-86129714D01*
X173680476Y-86082095D01*
X173585238Y-86034476D01*
X173490000Y-85939238D01*
X173442380Y-85796380D01*
X173442380Y-85701142D01*
X173490000Y-85558285D01*
X173537619Y-85510666D01*
X173442380Y-85177333D02*
X173442380Y-84558285D01*
X173823333Y-84891619D01*
X173823333Y-84748761D01*
X173870952Y-84653523D01*
X173918571Y-84605904D01*
X174013809Y-84558285D01*
X174251904Y-84558285D01*
X174347142Y-84605904D01*
X174394761Y-84653523D01*
X174442380Y-84748761D01*
X174442380Y-85034476D01*
X174394761Y-85129714D01*
X174347142Y-85177333D01*
%TO.C,C2*%
X163603333Y-95226142D02*
X163555714Y-95273761D01*
X163412857Y-95321380D01*
X163317619Y-95321380D01*
X163174761Y-95273761D01*
X163079523Y-95178523D01*
X163031904Y-95083285D01*
X162984285Y-94892809D01*
X162984285Y-94749952D01*
X163031904Y-94559476D01*
X163079523Y-94464238D01*
X163174761Y-94369000D01*
X163317619Y-94321380D01*
X163412857Y-94321380D01*
X163555714Y-94369000D01*
X163603333Y-94416619D01*
X163984285Y-94416619D02*
X164031904Y-94369000D01*
X164127142Y-94321380D01*
X164365238Y-94321380D01*
X164460476Y-94369000D01*
X164508095Y-94416619D01*
X164555714Y-94511857D01*
X164555714Y-94607095D01*
X164508095Y-94749952D01*
X163936666Y-95321380D01*
X164555714Y-95321380D01*
%TO.C,C1*%
X163748333Y-97258142D02*
X163700714Y-97305761D01*
X163557857Y-97353380D01*
X163462619Y-97353380D01*
X163319761Y-97305761D01*
X163224523Y-97210523D01*
X163176904Y-97115285D01*
X163129285Y-96924809D01*
X163129285Y-96781952D01*
X163176904Y-96591476D01*
X163224523Y-96496238D01*
X163319761Y-96401000D01*
X163462619Y-96353380D01*
X163557857Y-96353380D01*
X163700714Y-96401000D01*
X163748333Y-96448619D01*
X164700714Y-97353380D02*
X164129285Y-97353380D01*
X164415000Y-97353380D02*
X164415000Y-96353380D01*
X164319761Y-96496238D01*
X164224523Y-96591476D01*
X164129285Y-96639095D01*
%TD*%
M02*
